<svg width="32" height="40" viewBox="0 0 32 40" fill="none" xmlns="http://www.w3.org/2000/svg">
<path fill-rule="evenodd" clip-rule="evenodd" d="M18.3867 13.2C13.7843 13.2 10.0533 16.9309 10.0533 21.5333C10.0533 26.1357 13.7843 29.8666 18.3867 29.8666C22.9891 29.8666 26.72 26.1357 26.72 21.5333C26.72 16.9309 22.9891 13.2 18.3867 13.2ZM8.05334 21.5333C8.05334 15.8263 12.6797 11.2 18.3867 11.2C24.0936 11.2 28.72 15.8263 28.72 21.5333C28.72 27.2402 24.0936 31.8666 18.3867 31.8666C12.6797 31.8666 8.05334 27.2402 8.05334 21.5333Z" fill="#2667FF"/>
<path fill-rule="evenodd" clip-rule="evenodd" d="M12.5871 27.5195C12.9776 27.91 12.9776 28.5431 12.5871 28.9337L6.0804 35.4403C5.68987 35.8309 5.05671 35.8309 4.66618 35.4403C4.27566 35.0498 4.27566 34.4166 4.66618 34.0261L11.1729 27.5195C11.5634 27.1289 12.1965 27.1289 12.5871 27.5195Z" fill="#2667FF"/>
</svg>
