<svg xmlns="http://www.w3.org/2000/svg" width="213" height="142" fill="none"><path fill="#fff" d="M212.038 1.254H.615v139.211h211.423V1.254Z"/><path fill="#2667FF" d="M212.653 141.078H0V.638h212.653v140.44ZM1.23 139.85h210.194V1.867H1.229V139.85Z"/><path fill="#fff" d="m22.9 106.83 13.677-25.6 28.177 26.47 18.75-54.63 35.04 38.4 23.054-9.37 41.803-54.63"/><path fill="#2667FF" d="m65.01 108.825-28.279-26.52-13.268 24.831-1.127-.615 14.037-26.316 28.074 26.368 18.8-54.732 35.451 38.86 22.49-9.114 41.701-54.476 1.024.768-41.905 54.732-23.668 9.626-.308-.307L83.76 54.298l-18.75 54.527Z"/><path fill="#2667FF" d="M36.68 84.66a3.534 3.534 0 1 0-3.535-3.532 3.534 3.534 0 0 0 3.535 3.532ZM64.549 110.566a3.533 3.533 0 1 0 0-7.065 3.533 3.533 0 1 0 0 7.065ZM83.709 56.807a3.534 3.534 0 1 0-3.535-3.533 3.534 3.534 0 0 0 3.535 3.533ZM151.178 23.422H61.527v1.28h89.651v-1.28Z"/></svg>