<svg xmlns="http://www.w3.org/2000/svg" width="597" height="421" fill="none"><path fill="#fff" d="M595.98 15.975v389.217c0 8.089-6.557 14.642-14.651 14.642H15.348c-8.094 0-14.652-6.553-14.652-14.642V15.975c0-8.089 6.558-14.694 14.652-14.694h565.93a14.666 14.666 0 0 1 14.702 14.694Z"/><path fill="#2667FF" d="M581.329 420.499H15.348c-8.453 0-15.318-6.861-15.318-15.308V15.975C.03 7.527 6.895.666 15.348.666h565.93c8.452 0 15.317 6.86 15.317 15.309v389.164c0 8.448-6.865 15.36-15.266 15.36ZM15.348 1.946C7.612 1.946 1.31 8.244 1.31 15.975v389.164c0 7.732 6.301 14.029 14.037 14.029h565.93c7.735 0 14.036-6.297 14.036-14.029V15.975c0-7.731-6.301-14.029-14.036-14.029H15.348Z"/><path fill="#fff" d="M595.981 15.976v23.091H.697v-23.09c0-8.09 6.557-14.695 14.651-14.695h565.93a14.667 14.667 0 0 1 14.703 14.694Z"/><path fill="#2667FF" d="M596.595 39.68H.03V15.924C.03 7.476 6.895.615 15.348.615h565.93c8.452 0 15.317 6.86 15.317 15.309V39.68ZM1.311 38.4h594.003V15.924c0-7.731-6.301-14.029-14.036-14.029H15.348C7.612 1.895 1.31 8.193 1.31 15.924V38.4Z"/><path fill="#2856CC" d="M33.74 26.983a6.812 6.812 0 0 0 6.813-6.81c0-3.76-3.05-6.809-6.814-6.809a6.811 6.811 0 0 0-6.813 6.81c0 3.76 3.05 6.81 6.813 6.81Zm26.075-13.619A6.808 6.808 0 0 0 53 20.174c0 3.788 3.074 6.81 6.814 6.81s6.813-3.073 6.813-6.81c0-3.789-3.074-6.81-6.813-6.81Z"/><path fill="#2667FF" d="M85.84 26.983a6.808 6.808 0 0 1-6.814-6.81c0-3.788 3.074-6.809 6.813-6.809a6.808 6.808 0 0 1 6.814 6.81c0 3.788-3.074 6.81-6.814 6.81Zm0-12.339c-3.074 0-5.533 2.509-5.533 5.53 0 3.072 2.51 5.53 5.532 5.53 3.074 0 5.533-2.51 5.533-5.53a5.509 5.509 0 0 0-5.533-5.53ZM253.923 27.75H126.925c-4.201 0-7.582-3.43-7.582-7.577s3.433-7.577 7.582-7.577h126.947c4.2 0 7.582 3.43 7.582 7.577s-3.382 7.578-7.531 7.578ZM126.925 13.877a6.295 6.295 0 0 0-6.301 6.297 6.295 6.295 0 0 0 6.301 6.298h126.947a6.295 6.295 0 0 0 6.301-6.298 6.295 6.295 0 0 0-6.301-6.297H126.925Zm288.421 206.28c0 61.285-49.692 110.948-111.014 110.948-61.321 0-111.065-49.663-111.065-110.948 0-57.497 43.75-104.754 99.795-110.437l3.688 36.402c-37.551 3.789-66.854 35.482-66.854 73.983 0 41.062 33.299 74.393 74.385 74.393 41.086 0 74.385-33.28 74.385-74.393a74.083 74.083 0 0 0-2.92-20.633l35.195-10.137a109.319 109.319 0 0 1 4.405 30.822Z"/><path fill="#fff" d="M304.332 309.757c49.513 0 89.652-40.115 89.652-89.599s-40.139-89.598-89.652-89.598-89.651 40.114-89.651 89.598 40.138 89.599 89.651 89.599Z"/><path fill="#87BFFF" d="M304.332 309.757c49.513 0 89.652-40.115 89.652-89.599s-40.139-89.598-89.652-89.598-89.651 40.114-89.651 89.598 40.138 89.599 89.651 89.599Z" opacity=".5"/><path fill="#fff" d="M304.332 283.645c35.084 0 63.525-28.424 63.525-63.487s-28.441-63.487-63.525-63.487c-35.083 0-63.524 28.424-63.524 63.487s28.441 63.487 63.524 63.487Z"/><path fill="#2667FF" d="M311.556 251.389v9.626h-12.244v-9.216c-8.709-.512-17.111-2.867-22.336-6.093l6.608-14.95c5.738 3.379 13.371 5.581 20.082 5.581 5.84 0 7.941-1.229 7.941-3.328 0-7.629-33.658-1.485-33.658-24.166 0-9.831 7.121-18.074 21.414-20.07v-9.472h12.244v9.318c6.455.614 12.705 2.253 17.674 5.069l-6.199 14.848c-5.994-3.021-11.68-4.506-16.957-4.506-5.994 0-7.94 1.741-7.94 3.84 0 7.321 33.658 1.229 33.658 23.654 0 9.318-6.814 17.51-20.287 19.865Z"/><path fill="#E6F4FF" d="m482.2 147.814-15.317-42.24c-17.265 6.247-29.611 22.784-29.611 42.24 0 24.78 20.133 44.901 44.928 44.901 24.795 0 44.928-20.121 44.928-44.901 0-7.475-1.844-14.49-5.071-20.685L482.2 147.814Z"/><path fill="#2667FF" d="M528.102 111.154c-7.48-14.387-22.541-24.218-39.857-24.218-5.379 0-10.502.922-15.317 2.663l15.317 42.239 39.857-20.684Z"/><path fill="#E6F4FF" d="M545.827 291.735H439.526v101.119h106.301V291.735Z"/><path fill="#fff" d="M515.704 318.617h-59.528v4.25h59.528v-4.25Zm0 12.798h-59.528v4.25h59.528v-4.25Z"/><path fill="#E6F4FF" d="M140.04 98.457H47.622v156.158h92.418V98.457Z"/><path fill="#fff" d="M122.315 121.088H61.71v55.449h60.605v-55.449Z"/><path fill="#E6F4FF" d="m62.15 120.612-.865.944 60.616 55.451.865-.944-60.616-55.451Z"/><path fill="#E6F4FF" d="m121.856 120.652-60.607 55.452.864.943 60.608-55.451-.865-.944Z"/></svg>