<svg xmlns="http://www.w3.org/2000/svg" width="847" height="529" fill="none"><path fill="#ADD7F6" d="M817.115 484.864c16.505-16.496 16.505-43.24 0-59.735-16.505-16.496-43.265-16.496-59.77 0-16.505 16.495-16.505 43.239 0 59.735 16.505 16.495 43.265 16.495 59.77 0ZM137.413 205.755c25.188-25.173 25.188-65.986 0-91.159-25.188-25.173-66.025-25.173-91.213 0-25.187 25.173-25.187 65.986 0 91.159 25.188 25.173 66.025 25.173 91.213 0ZM314.812 98.239c18.56 0 33.606-15.037 33.606-33.587 0-18.55-15.046-33.587-33.606-33.587-18.56 0-33.606 15.038-33.606 33.587 0 18.55 15.046 33.587 33.606 33.587Z" opacity=".4"/><path fill="#2667FF" d="M266.657 81.241c-2.101 0-4.201-.153-6.25-.512l.205-1.28a39.95 39.95 0 0 0 6.045.461h.256v1.28l-.256.051Zm6.762-.563-.205-1.28a42.472 42.472 0 0 0 6.096-1.536l.41 1.229c-2.049.717-4.201 1.229-6.301 1.587Zm-19.313-1.433a41.07 41.07 0 0 1-5.994-2.51l.563-1.126a33.694 33.694 0 0 0 5.789 2.407l-.358 1.228Zm31.557-2.714-.615-1.127a38.932 38.932 0 0 0 5.328-3.379l.768 1.024a47.113 47.113 0 0 1-5.481 3.482Zm-43.033-3.226a43.029 43.029 0 0 1-4.918-4.25l.922-.87a46.069 46.069 0 0 0 4.765 4.148l-.769.972Zm53.33-4.608-.922-.87a40.537 40.537 0 0 0 3.945-4.915l1.075.717c-1.229 1.792-2.561 3.481-4.098 5.068Zm-62.397-4.659c-1.23-1.792-2.357-3.635-3.279-5.58l1.178-.564a40.69 40.69 0 0 0 3.176 5.428l-1.075.716Zm69.723-6.041-1.178-.563c.87-1.895 1.639-3.892 2.202-5.888l1.23.358a36.233 36.233 0 0 1-2.254 6.093Zm-75.359-5.632a45.474 45.474 0 0 1-1.383-6.349l1.281-.153a36.492 36.492 0 0 0 1.332 6.144l-1.23.358Zm78.894-6.81-1.281-.153c.154-1.485.256-3.021.256-4.557 0-.563 0-1.178-.051-1.74l1.281-.052c.051.614.051 1.178.051 1.792.051 1.536-.051 3.123-.256 4.71Zm-79.303-5.99-1.281-.051c.051-2.15.307-4.352.717-6.451l1.281.256c-.41 2.048-.615 4.198-.717 6.246Zm77.51-6.707a35.627 35.627 0 0 0-1.793-6.042l1.178-.46a45.825 45.825 0 0 1 1.844 6.246l-1.229.256Zm-75.051-5.58-1.179-.462c.769-2.047 1.691-3.993 2.715-5.887l1.127.614c-1.075 1.843-1.946 3.789-2.663 5.734Zm73.155-.769a38.199 38.199 0 0 0-2.766-5.632l1.127-.665a47.455 47.455 0 0 1 2.869 5.836l-1.23.461Zm-67.008-10.137-1.024-.82c1.331-1.689 2.868-3.276 4.456-4.71l.871.973a40.37 40.37 0 0 0-4.303 4.557Zm60.604-.615a40.63 40.63 0 0 0-4.405-4.505l.819-.973a42.927 42.927 0 0 1 4.56 4.608l-.974.87Zm-51.28-7.782-.717-1.075c1.793-1.178 3.739-2.202 5.737-3.072l.513 1.178c-1.947.819-3.791 1.843-5.533 2.97Zm41.803-.46a47.928 47.928 0 0 0-5.584-2.868l.512-1.177c1.998.819 3.945 1.843 5.789 2.97l-.717 1.074Zm-30.328-4.557-.307-1.23c2.1-.562 4.252-.92 6.404-1.126l.102 1.28c-2.1.154-4.15.512-6.199 1.076Zm18.699-.205c-2.049-.461-4.15-.82-6.199-.973l.103-1.28c2.151.154 4.303.46 6.403.973l-.307 1.28Zm394.517 525.816v-1.28c2.1-.052 4.252-.103 6.352-.256l.102 1.28c-2.151.153-4.303.204-6.454.256Zm-6.404-.052c-2.152-.051-4.303-.153-6.404-.358l.103-1.28c2.1.154 4.252.256 6.352.307l-.051 1.331Zm19.262-.768-.154-1.28c2.101-.256 4.252-.512 6.302-.87l.205 1.28a89.858 89.858 0 0 1-6.353.87Zm-32.069-.153a134.784 134.784 0 0 1-6.353-.922l.205-1.28c2.1.359 4.201.666 6.301.922l-.153 1.28Zm44.774-1.843-.256-1.229c2.1-.41 4.149-.922 6.199-1.434l.307 1.229c-2.049.512-4.15.973-6.25 1.434Zm-57.479-.359a123.893 123.893 0 0 1-6.25-1.536l.358-1.229c2.05.564 4.099 1.076 6.199 1.536l-.307 1.229Zm69.928-2.867-.359-1.229c1.998-.614 4.047-1.28 6.045-2.048l.461 1.229c-2.049.717-4.098 1.434-6.147 2.048Zm-82.326-.461a210.675 210.675 0 0 1-6.096-2.099l.461-1.177c1.998.768 3.996 1.433 6.045 2.099l-.41 1.177Zm94.416-3.891-.512-1.177c1.946-.82 3.893-1.69 5.789-2.56l.563 1.177a284.585 284.585 0 0 1-5.84 2.56Zm-106.506-.665c-1.947-.871-3.945-1.741-5.84-2.663l.563-1.126c1.896.921 3.843 1.843 5.789 2.662l-.512 1.127Zm118.084-4.813-.615-1.127c1.844-.972 3.74-2.048 5.533-3.123l.666 1.127c-1.793 1.075-3.689 2.099-5.584 3.123Zm-129.662-.819c-1.895-1.024-3.74-2.1-5.584-3.226l.666-1.075a85.82 85.82 0 0 0 5.533 3.174l-.615 1.127Zm140.727-5.735-.717-1.075a133.053 133.053 0 0 0 5.225-3.635l.769 1.024a121.55 121.55 0 0 1-5.277 3.686Zm-151.69-.973a120.651 120.651 0 0 1-5.225-3.737l.768-1.024a119.173 119.173 0 0 0 5.174 3.686l-.717 1.075Zm162.039-6.604-.82-.973a187.717 187.717 0 0 0 4.867-4.096l.871.973a130.726 130.726 0 0 1-4.918 4.096Zm-172.336-1.127c-1.639-1.382-3.279-2.764-4.867-4.198l.871-.973a120.252 120.252 0 0 0 4.816 4.147l-.82 1.024Zm181.967-7.372-.871-.922a124.752 124.752 0 0 0 4.457-4.557l.922.871c-1.434 1.587-2.971 3.123-4.508 4.608Zm-191.496-1.229c-1.536-1.485-3.022-3.072-4.457-4.659l.923-.871c1.434 1.536 2.92 3.124 4.405 4.608l-.871.922Zm200.307-8.141-.973-.819c1.383-1.587 2.715-3.277 4.047-4.915l1.025.768a351.395 351.395 0 0 1-4.099 4.966Zm-209.016-1.331a122.94 122.94 0 0 1-3.996-5.017l1.025-.768a129.713 129.713 0 0 0 3.945 4.966l-.974.819Zm216.905-8.857-1.024-.717a158.6 158.6 0 0 0 3.535-5.274l1.076.666c-1.128 1.792-2.357 3.584-3.587 5.325Zm-224.64-1.383a87.177 87.177 0 0 1-3.484-5.376l1.076-.665c1.127 1.792 2.254 3.584 3.484 5.324l-1.076.717Zm231.556-9.472-1.127-.614a194.75 194.75 0 0 0 3.023-5.632l1.127.563a74.962 74.962 0 0 1-3.023 5.683Zm-238.319-1.484a120.276 120.276 0 0 1-2.971-5.684l1.127-.563c.922 1.895 1.947 3.789 2.971 5.632l-1.127.615Zm244.16-9.984-1.179-.512a204.108 204.108 0 0 0 2.511-5.888l1.178.461c-.769 1.996-1.588 3.993-2.51 5.939Zm-249.846-1.485a84.6 84.6 0 0 1-2.408-5.939l1.178-.461c.769 1.946 1.537 3.942 2.408 5.888l-1.178.512Zm254.61-10.496-1.23-.41c.666-1.996 1.332-4.044 1.896-6.092l1.229.358c-.563 2.099-1.229 4.147-1.895 6.144Zm-259.169-1.485a140.436 140.436 0 0 1-1.845-6.144l1.23-.358a119.187 119.187 0 0 0 1.844 6.093l-1.229.409Zm262.755-10.854-1.229-.307c.512-2.048.922-4.147 1.331-6.246l1.281.256c-.461 2.15-.922 4.249-1.383 6.297Zm-266.188-1.536c-.461-2.048-.922-4.198-1.28-6.297l1.28-.205c.359 2.099.82 4.198 1.281 6.246l-1.281.256Zm268.545-11.059-1.281-.154c.307-2.099.563-4.198.717-6.348l1.281.102a87.616 87.616 0 0 1-.717 6.4Zm-270.799-1.638c-.256-2.1-.512-4.25-.666-6.4l1.281-.103c.154 2.1.41 4.25.666 6.349l-1.281.154Zm272.028-11.162-1.281-.051c.103-2.099.154-4.249.154-6.349h1.281c0 2.1-.051 4.25-.154 6.4Zm-273.052-1.638a148.605 148.605 0 0 1-.103-4.813v-1.638h1.281v1.587c0 1.587.051 3.174.102 4.761l-1.28.103Zm271.874-7.936c-.051-2.099-.154-4.25-.308-6.349l1.281-.102c.154 2.099.256 4.301.308 6.4l-1.281.051Zm-270.44-4.813-1.281-.051c.103-2.15.308-4.301.512-6.4l1.281.154c-.256 2.048-.41 4.147-.512 6.297Zm269.569-7.884c-.256-2.1-.564-4.199-.871-6.298l1.281-.205a90.34 90.34 0 0 1 .871 6.349l-1.281.154Zm-268.237-4.813-1.281-.205c.308-2.099.717-4.25 1.127-6.349l1.281.256c-.461 2.099-.82 4.25-1.127 6.298Zm266.137-7.731c-.462-2.048-.923-4.147-1.486-6.195l1.229-.308c.564 2.048 1.025 4.148 1.486 6.247l-1.229.256Zm-263.627-4.711-1.229-.307c.512-2.048 1.075-4.147 1.741-6.195l1.23.358c-.666 1.997-1.23 4.096-1.742 6.144Zm260.399-7.628c-.615-1.997-1.332-4.045-2.049-6.042l1.178-.461a213.557 213.557 0 0 1 2.101 6.093l-1.23.41Zm-256.71-4.608-1.23-.41a145.701 145.701 0 0 1 2.305-6.041l1.179.46a280.626 280.626 0 0 0-2.254 5.991Zm252.304-7.322a116.941 116.941 0 0 0-2.612-5.785l1.178-.563c.922 1.945 1.793 3.891 2.664 5.836l-1.23.512Zm-247.489-4.454-1.178-.563c.922-1.946 1.844-3.891 2.869-5.786l1.127.615c-.973 1.894-1.896 3.84-2.818 5.734Zm242.008-7.014c-.974-1.844-2.049-3.687-3.125-5.53l1.076-.665c1.127 1.843 2.151 3.686 3.176 5.58l-1.127.615Zm-236.065-4.301-1.127-.666a121.633 121.633 0 0 1 3.381-5.478l1.076.717a310.886 310.886 0 0 0-3.33 5.427Zm229.507-6.605a316.358 316.358 0 0 0-3.637-5.222l1.025-.768c1.28 1.741 2.51 3.481 3.688 5.273l-1.076.717Zm-222.54-4.045-1.025-.768c1.23-1.74 2.562-3.43 3.894-5.119l1.024.819a121.614 121.614 0 0 0-3.893 5.068Zm214.958-6.195a123.818 123.818 0 0 0-4.149-4.864l.973-.87a95.48 95.48 0 0 1 4.15 4.915l-.974.819Zm-207.017-3.788-.974-.82a125.697 125.697 0 0 1 4.355-4.761l.922.87c-1.435 1.536-2.92 3.123-4.303 4.711Zm198.565-5.684a125.554 125.554 0 0 0-4.56-4.454l.871-.921a126.736 126.736 0 0 1 4.611 4.505l-.922.87Zm-189.754-3.481-.871-.922c1.537-1.484 3.176-2.918 4.764-4.3l.82.972c-1.588 1.332-3.176 2.816-4.713 4.25Zm180.379-5.171c-1.588-1.383-3.279-2.714-4.97-3.994l.769-1.024c1.69 1.28 3.381 2.663 5.02 4.045l-.819.973Zm-170.697-3.123-.768-1.024a122.373 122.373 0 0 1 5.174-3.84l.717 1.024c-1.741 1.228-3.483 2.508-5.123 3.84Zm160.604-4.659a118.889 118.889 0 0 0-5.327-3.533l.666-1.075c1.793 1.126 3.637 2.304 5.379 3.532l-.718 1.076Zm-150.255-2.714-.717-1.075a193.275 193.275 0 0 1 5.481-3.328l.666 1.126c-1.793 1.024-3.637 2.099-5.43 3.277Zm139.446-4.045a197.369 197.369 0 0 0-5.635-3.021l.563-1.126a199.09 199.09 0 0 1 5.687 3.021l-.615 1.126Zm-128.432-2.355-.564-1.126c1.896-.973 3.843-1.946 5.789-2.816l.513 1.177c-1.947.871-3.842 1.843-5.738 2.765Zm117.059-3.379c-1.947-.87-3.893-1.69-5.891-2.458l.461-1.177c1.998.768 3.996 1.587 5.942 2.457l-.512 1.178ZM617.27 266.48l-.461-1.178c1.998-.819 3.996-1.536 6.045-2.253l.41 1.229c-2.049.666-4.047 1.434-5.994 2.202Zm93.545-2.714c-1.998-.666-4.047-1.28-6.097-1.894l.359-1.229c2.049.563 4.098 1.229 6.148 1.894l-.41 1.229Zm-81.506-1.485-.359-1.229c2.049-.614 4.15-1.177 6.199-1.689l.307 1.229c-2.049.563-4.149 1.126-6.147 1.689Zm69.262-1.997c-2.049-.46-4.15-.921-6.25-1.28l.256-1.28c2.1.41 4.201.82 6.301 1.332l-.307 1.228Zm-56.916-1.024-.256-1.28c2.1-.409 4.252-.768 6.352-1.075l.205 1.28c-2.1.307-4.201.666-6.301 1.075Zm44.416-1.28c-2.101-.307-4.201-.512-6.352-.716l.102-1.28c2.152.204 4.252.409 6.404.716l-.154 1.28Zm-31.814-.563-.102-1.28c2.1-.205 4.252-.358 6.404-.461l.051 1.28c-2.1.103-4.252.256-6.353.461Zm19.109-.563c-1.844-.051-3.74-.102-5.635-.102h-.769v-1.28h.769c1.895 0 3.791.051 5.686.102l-.051 1.28ZM113.379 378.863c-2.152 0-4.303-.103-6.455-.256l.102-1.28c2.101.153 4.252.256 6.353.256v1.28Zm6.455-.205-.103-1.28c2.101-.154 4.252-.359 6.302-.615l.153 1.28c-2.049.256-4.201.461-6.352.615Zm-19.262-.819a92.485 92.485 0 0 1-6.353-1.178l.256-1.229c2.05.461 4.15.871 6.25 1.178l-.153 1.229Zm32.018-.922-.256-1.229c2.049-.409 4.149-.973 6.147-1.536l.359 1.229c-2.049.563-4.15 1.075-6.25 1.536Zm-44.62-1.843a85.937 85.937 0 0 1-6.097-2.099l.46-1.178a83.705 83.705 0 0 0 6.046 2.048l-.41 1.229Zm57.017-1.741-.461-1.177c1.998-.717 3.945-1.536 5.892-2.407l.512 1.178a85.163 85.163 0 0 1-5.943 2.406Zm-69.057-2.867a100.735 100.735 0 0 1-5.738-2.918l.615-1.127a99.033 99.033 0 0 0 5.687 2.919l-.564 1.126Zm80.789-2.406-.615-1.127a118.539 118.539 0 0 0 5.482-3.225l.666 1.075c-1.793 1.126-3.638 2.253-5.533 3.277Zm-92.06-3.892a89.784 89.784 0 0 1-5.276-3.737l.769-1.024a117.96 117.96 0 0 0 5.174 3.686l-.666 1.075Zm102.921-3.072-.769-1.024c1.691-1.28 3.381-2.611 4.969-3.993l.82.973c-1.639 1.433-3.33 2.816-5.02 4.044Zm-113.166-4.71c-1.588-1.433-3.176-2.918-4.662-4.454l.922-.922c1.486 1.485 3.023 2.97 4.61 4.352l-.87 1.024Zm122.899-3.686-.922-.922c1.486-1.485 2.971-3.021 4.355-4.659l.973.819a55.662 55.662 0 0 1-4.406 4.762Zm-131.915-5.53a96.735 96.735 0 0 1-3.996-5.068l1.024-.768a72.982 72.982 0 0 0 3.945 4.966l-.974.87Zm140.419-4.147-1.024-.768a73.233 73.233 0 0 0 3.637-5.222l1.076.717a122.386 122.386 0 0 1-3.689 5.273Zm-148.053-6.195c-1.127-1.792-2.254-3.686-3.227-5.581l1.127-.614a84.33 84.33 0 0 0 3.176 5.478l-1.076.717Zm155.02-4.608-1.127-.614a73.677 73.677 0 0 0 2.869-5.683l1.179.512a68.001 68.001 0 0 1-2.921 5.785Zm-161.116-6.758a76.957 76.957 0 0 1-2.408-5.991l1.23-.409c.717 1.997 1.537 3.942 2.356 5.888l-1.178.512Zm166.496-4.967-1.179-.46c.717-1.997 1.435-3.994 1.998-6.042l1.23.359c-.564 2.048-1.281 4.147-2.049 6.143Zm-170.85-7.116a123.139 123.139 0 0 1-1.537-6.247l1.23-.256a89.802 89.802 0 0 0 1.485 6.196l-1.178.307Zm174.487-5.274-1.23-.256c.461-2.048.82-4.147 1.127-6.246l1.281.205a85.13 85.13 0 0 1-1.178 6.297Zm-177.049-7.372c-.256-2.1-.461-4.25-.615-6.4l1.281-.052c.102 2.1.307 4.25.615 6.298l-1.28.154Zm178.893-5.325-1.281-.103c.154-2.099.205-4.249.205-6.348h1.281c.051 2.15-.051 4.3-.205 6.451Zm-178.38-7.526h-1.281c0-2.151.102-4.301.307-6.452l1.28.103a66.596 66.596 0 0 0-.307 6.349Zm177.253-3.175c-.102-2.099-.256-4.249-.512-6.349l1.28-.153c.257 2.099.41 4.301.513 6.4l-1.281.102Zm-176.229-9.472-1.28-.204c.307-2.1.716-4.25 1.229-6.349l1.23.307a95.135 95.135 0 0 0-1.179 6.246Zm174.692-3.174c-.41-2.048-.871-4.147-1.434-6.195l1.229-.307c.564 2.048 1.025 4.198 1.435 6.297l-1.23.205Zm-171.823-9.165-1.23-.358a85.583 85.583 0 0 1 2.1-6.093l1.179.461c-.768 1.946-1.434 3.942-2.05 5.99Zm168.544-3.072a100.428 100.428 0 0 0-2.305-5.888l1.178-.512c.871 1.946 1.64 3.994 2.357 5.991l-1.23.409Zm-163.933-8.806-1.179-.563a86.708 86.708 0 0 1 2.971-5.734l1.127.614a74.69 74.69 0 0 0-2.92 5.683Zm158.913-2.816a73.004 73.004 0 0 0-3.125-5.529l1.076-.666c1.127 1.843 2.203 3.686 3.176 5.581l-1.127.614Zm-152.664-8.243-1.075-.717c1.178-1.792 2.459-3.533 3.74-5.222l1.024.768c-1.28 1.689-2.562 3.43-3.689 5.171Zm146.004-2.611c-1.229-1.69-2.561-3.379-3.893-5.018l.973-.819a75.944 75.944 0 0 1 3.945 5.12l-1.025.717Zm-138.268-7.424-.973-.87c1.434-1.588 2.92-3.175 4.457-4.66l.87.922c-1.434 1.485-2.92 3.021-4.354 4.608Zm130.174-2.304c-1.486-1.536-2.971-3.021-4.559-4.403l.87-.973c1.588 1.434 3.125 2.97 4.611 4.506l-.922.87Zm-121.055-6.554-.82-.972a74.623 74.623 0 0 1 5.072-3.943l.768 1.024a120.045 120.045 0 0 0-5.02 3.891Zm111.629-1.996a94.09 94.09 0 0 0-5.123-3.738l.717-1.075a75.366 75.366 0 0 1 5.225 3.789l-.819 1.024ZM67.17 213.643l-.666-1.076c1.793-1.126 3.689-2.201 5.584-3.225l.615 1.126a73.519 73.519 0 0 0-5.533 3.175Zm90.778-1.639c-1.844-1.075-3.739-2.048-5.635-2.969l.564-1.178a75.56 75.56 0 0 1 5.686 3.021l-.615 1.126Zm-79.559-4.301-.512-1.177c1.947-.87 3.996-1.639 5.994-2.355l.41 1.229a116.47 116.47 0 0 0-5.892 2.303Zm68.084-1.228a82.919 82.919 0 0 0-5.994-2.099l.359-1.229a122.09 122.09 0 0 1 6.096 2.15l-.461 1.178Zm-56.147-2.97-.359-1.229a85.114 85.114 0 0 1 6.25-1.484l.256 1.28c-1.998.358-4.098.87-6.147 1.433Zm44.057-.819c-2.049-.461-4.15-.922-6.25-1.229l.205-1.28c2.1.359 4.252.768 6.301 1.229l-.256 1.28Zm-31.557-1.69-.154-1.28c2.1-.256 4.303-.46 6.404-.563l.051 1.28c-2.101.154-4.252.307-6.301.563Zm19.006-.307c-2.101-.205-4.252-.307-6.353-.358v-1.28c2.152.051 4.304.153 6.455.358l-.102 1.28Zm352.303-127.28c-11.936 0-21.618-9.677-21.618-21.607 0-11.929 9.682-21.606 21.618-21.606 11.937 0 21.619 9.677 21.619 21.606 0 11.93-9.733 21.607-21.619 21.607Zm0-42.24c-11.373 0-20.645 9.267-20.645 20.633 0 11.367 9.272 20.634 20.645 20.634s20.646-9.267 20.646-20.634c0-11.366-9.273-20.633-20.646-20.633Z"/></svg>