<svg width="864" height="556" viewBox="0 0 864 556" fill="none" xmlns="http://www.w3.org/2000/svg">
<path opacity="0.4" d="M834.115 484.864C850.62 468.368 850.62 441.624 834.115 425.129C817.61 408.633 790.85 408.633 774.345 425.129C757.84 441.624 757.84 468.368 774.345 484.864C790.85 501.359 817.61 501.359 834.115 484.864Z" fill="#ADD7F6"/>
<path opacity="0.4" d="M154.413 205.755C179.601 180.582 179.601 139.769 154.413 114.596C129.225 89.4232 88.3879 89.4232 63.2002 114.596C38.0125 139.769 38.0125 180.582 63.2002 205.755C88.3879 230.928 129.225 230.928 154.413 205.755Z" fill="#ADD7F6"/>
<path opacity="0.4" d="M331.812 98.2399C350.372 98.2399 365.418 83.2026 365.418 64.6531C365.418 46.1037 350.372 31.0664 331.812 31.0664C313.252 31.0664 298.206 46.1037 298.206 64.6531C298.206 83.2026 313.252 98.2399 331.812 98.2399Z" fill="#ADD7F6"/>
<path d="M283.657 81.2413C281.556 81.2413 279.456 81.0877 277.407 80.7293L277.611 79.4493C279.609 79.7565 281.659 79.9101 283.657 79.9101H283.913V81.1901L283.657 81.2413ZM290.419 80.6781L290.214 79.3981C292.263 79.0397 294.312 78.5277 296.31 77.8621L296.72 79.0909C294.671 79.8077 292.519 80.3197 290.419 80.6781ZM271.105 79.2445C269.056 78.5789 267.007 77.7085 265.112 76.7357L265.675 75.6093C267.519 76.5821 269.466 77.4013 271.464 78.0157L271.105 79.2445ZM302.663 76.5309L302.048 75.4045C303.892 74.4317 305.685 73.3054 307.376 72.0254L308.144 73.0494C306.402 74.3294 304.558 75.5069 302.663 76.5309ZM259.63 73.3054C257.888 72.0254 256.249 70.5918 254.712 69.0558L255.634 68.1854C257.12 69.6702 258.708 71.0526 260.398 72.3326L259.63 73.3054ZM312.96 68.6974L312.038 67.827C313.472 66.2911 314.804 64.6527 315.982 62.9119L317.058 63.6287C315.829 65.4207 314.497 67.1103 312.96 68.6974ZM250.562 64.0383C249.333 62.2463 248.206 60.4032 247.284 58.4576L248.462 57.8944C249.384 59.7888 250.46 61.6319 251.638 63.3215L250.562 64.0383ZM320.286 57.9968L319.107 57.4336C319.978 55.5392 320.747 53.5425 321.31 51.5457L322.54 51.9041C321.976 54.0032 321.208 56.0512 320.286 57.9968ZM244.927 52.3649C244.312 50.2657 243.851 48.1665 243.544 46.0162L244.825 45.8626C245.081 47.9105 245.542 50.0097 246.157 52.0065L244.927 52.3649ZM323.82 45.5554L322.54 45.4018C322.693 43.917 322.796 42.381 322.796 40.845C322.796 40.2818 322.796 39.6674 322.745 39.1043L324.025 39.053C324.077 39.6674 324.077 40.2306 324.077 40.845C324.128 42.381 324.025 43.9682 323.82 45.5554ZM244.517 39.565L243.237 39.5139C243.288 37.3635 243.544 35.1619 243.954 33.0627L245.235 33.3187C244.825 35.3667 244.62 37.5171 244.517 39.565ZM322.027 32.8579C321.618 30.81 321.003 28.762 320.234 26.8164L321.413 26.3556C322.181 28.4036 322.796 30.5028 323.257 32.602L322.027 32.8579ZM246.976 27.2772L245.798 26.8164C246.566 24.7685 247.489 22.8229 248.513 20.9285L249.64 21.5429C248.564 23.3861 247.694 25.3316 246.976 27.2772ZM320.132 26.5092C319.363 24.5637 318.441 22.6693 317.365 20.8773L318.493 20.2117C319.568 22.0549 320.542 24.0517 321.361 26.0484L320.132 26.5092ZM253.124 16.3718L252.099 15.5526C253.431 13.863 254.968 12.2758 256.556 10.8423L257.427 11.815C255.89 13.1974 254.456 14.7334 253.124 16.3718ZM313.728 15.7574C312.396 14.1702 310.911 12.6342 309.322 11.2518L310.142 10.2791C311.781 11.7126 313.318 13.2486 314.702 14.887L313.728 15.7574ZM262.448 7.9751L261.73 6.89991C263.523 5.72233 265.47 4.69834 267.468 3.82795L267.98 5.00553C266.034 5.82472 264.189 6.84871 262.448 7.9751ZM304.251 7.51431C302.458 6.43912 300.562 5.46633 298.667 4.64714L299.179 3.46955C301.177 4.28874 303.124 5.31274 304.968 6.43912L304.251 7.51431ZM273.923 2.95756L273.616 1.72878C275.716 1.16559 277.868 0.807202 280.019 0.602405L280.122 1.88239C278.021 2.03598 275.972 2.39437 273.923 2.95756ZM292.622 2.75276C290.573 2.29197 288.472 1.93358 286.423 1.77998L286.525 0.5C288.677 0.653598 290.829 0.96079 292.929 1.47278L292.622 2.75276Z" fill="#2667FF"/>
<path d="M687.138 528.57V527.29C689.239 527.238 691.391 527.187 693.491 527.034L693.593 528.314C691.442 528.467 689.29 528.518 687.138 528.57ZM680.735 528.518C678.583 528.467 676.432 528.365 674.331 528.16L674.434 526.88C676.534 527.034 678.686 527.136 680.786 527.187L680.735 528.518ZM699.997 527.75L699.843 526.47C701.944 526.214 704.095 525.958 706.145 525.6L706.349 526.88C704.249 527.238 702.097 527.546 699.997 527.75ZM667.927 527.597C665.827 527.341 663.675 527.034 661.575 526.675L661.78 525.395C663.88 525.754 665.981 526.061 668.081 526.317L667.927 527.597ZM712.702 525.754L712.446 524.525C714.546 524.115 716.595 523.603 718.645 523.091L718.952 524.32C716.903 524.832 714.802 525.293 712.702 525.754ZM655.223 525.395C653.122 524.934 651.022 524.422 648.973 523.859L649.331 522.63C651.38 523.194 653.43 523.706 655.53 524.166L655.223 525.395ZM725.151 522.528L724.792 521.299C726.79 520.685 728.839 520.019 730.837 519.251L731.298 520.48C729.249 521.197 727.2 521.914 725.151 522.528ZM642.825 522.067C640.776 521.402 638.727 520.685 636.729 519.968L637.19 518.791C639.188 519.559 641.186 520.224 643.235 520.89L642.825 522.067ZM737.241 518.176L736.729 516.999C738.675 516.179 740.622 515.309 742.517 514.439L743.081 515.616C741.134 516.487 739.188 517.357 737.241 518.176ZM630.735 517.511C628.788 516.64 626.79 515.77 624.895 514.848L625.458 513.722C627.354 514.643 629.301 515.565 631.247 516.384L630.735 517.511ZM748.819 512.698L748.204 511.571C750.048 510.599 751.944 509.523 753.737 508.448L754.403 509.575C752.61 510.65 750.714 511.674 748.819 512.698ZM619.157 511.879C617.262 510.855 615.417 509.779 613.573 508.653L614.239 507.578C616.032 508.704 617.928 509.779 619.772 510.752L619.157 511.879ZM759.884 506.144L759.167 505.069C760.96 503.892 762.702 502.663 764.392 501.434L765.161 502.458C763.419 503.738 761.677 504.967 759.884 506.144ZM608.194 505.171C606.452 503.994 604.659 502.714 602.969 501.434L603.737 500.41C605.428 501.69 607.169 502.919 608.911 504.096L608.194 505.171ZM770.233 498.567L769.413 497.594C771.052 496.263 772.691 494.88 774.28 493.498L775.151 494.471C773.562 495.853 771.923 497.236 770.233 498.567ZM597.897 497.44C596.258 496.058 594.618 494.676 593.03 493.242L593.901 492.269C595.489 493.703 597.077 495.085 598.717 496.416L597.897 497.44ZM779.864 490.068L778.993 489.146C780.53 487.661 782.015 486.125 783.45 484.589L784.372 485.46C782.937 487.047 781.4 488.583 779.864 490.068ZM588.368 488.839C586.831 487.354 585.346 485.767 583.911 484.18L584.833 483.309C586.268 484.845 587.753 486.433 589.239 487.917L588.368 488.839ZM788.675 480.698L787.702 479.879C789.085 478.292 790.417 476.602 791.749 474.964L792.773 475.732C791.441 477.37 790.058 479.06 788.675 480.698ZM579.659 479.367C578.276 477.729 576.944 476.039 575.663 474.35L576.688 473.582C577.969 475.271 579.301 476.961 580.633 478.548L579.659 479.367ZM796.564 470.51L795.54 469.793C796.769 468.052 797.948 466.26 799.075 464.519L800.15 465.185C799.023 466.977 797.794 468.769 796.564 470.51ZM571.924 469.127C570.694 467.386 569.516 465.543 568.44 463.751L569.516 463.086C570.643 464.878 571.77 466.67 572.999 468.41L571.924 469.127ZM803.48 459.655L802.353 459.041C803.378 457.198 804.402 455.303 805.376 453.409L806.503 453.972C805.581 455.918 804.556 457.812 803.48 459.655ZM565.161 458.171C564.137 456.327 563.112 454.382 562.19 452.487L563.317 451.924C564.239 453.819 565.264 455.713 566.288 457.556L565.161 458.171ZM809.32 448.187L808.142 447.675C809.013 445.729 809.833 443.784 810.652 441.787L811.831 442.248C811.062 444.244 810.243 446.241 809.32 448.187ZM559.475 446.702C558.604 444.756 557.784 442.76 557.067 440.763L558.245 440.302C559.014 442.248 559.782 444.244 560.653 446.19L559.475 446.702ZM814.085 436.206L812.855 435.796C813.521 433.8 814.187 431.752 814.751 429.704L815.98 430.062C815.417 432.161 814.751 434.209 814.085 436.206ZM554.915 434.721C554.249 432.673 553.635 430.625 553.071 428.577L554.301 428.219C554.864 430.267 555.479 432.315 556.145 434.312L554.915 434.721ZM817.671 423.867L816.441 423.56C816.954 421.512 817.363 419.413 817.773 417.314L819.054 417.57C818.593 419.72 818.132 421.819 817.671 423.867ZM551.483 422.331C551.022 420.283 550.561 418.133 550.202 416.034L551.483 415.829C551.842 417.928 552.303 420.027 552.764 422.075L551.483 422.331ZM820.027 411.272L818.747 411.118C819.054 409.019 819.31 406.92 819.464 404.77L820.745 404.872C820.591 407.023 820.335 409.173 820.027 411.272ZM549.229 409.634C548.973 407.534 548.717 405.384 548.563 403.234L549.844 403.131C549.997 405.231 550.254 407.381 550.51 409.48L549.229 409.634ZM821.257 398.472L819.976 398.421C820.079 396.322 820.13 394.172 820.13 392.072H821.411C821.411 394.172 821.359 396.322 821.257 398.472ZM548.204 396.834C548.153 395.247 548.102 393.608 548.102 392.021C548.102 391.458 548.102 390.946 548.102 390.383H549.383C549.383 390.895 549.383 391.458 549.383 391.97C549.383 393.557 549.434 395.144 549.485 396.731L548.204 396.834ZM820.079 388.898C820.027 386.799 819.925 384.648 819.771 382.549L821.052 382.447C821.206 384.546 821.308 386.748 821.359 388.847L820.079 388.898ZM549.639 384.085L548.358 384.034C548.461 381.884 548.665 379.733 548.87 377.634L550.151 377.788C549.895 379.836 549.741 381.935 549.639 384.085ZM819.208 376.201C818.952 374.101 818.644 372.002 818.337 369.903L819.618 369.698C819.976 371.797 820.284 373.948 820.489 376.047L819.208 376.201ZM550.971 371.388L549.69 371.183C549.997 369.084 550.407 366.933 550.817 364.834L552.098 365.09C551.637 367.189 551.278 369.34 550.971 371.388ZM817.107 363.657C816.646 361.609 816.185 359.51 815.622 357.462L816.851 357.154C817.415 359.202 817.876 361.302 818.337 363.401L817.107 363.657ZM553.481 358.946L552.252 358.639C552.764 356.591 553.327 354.492 553.993 352.444L555.223 352.802C554.557 354.799 553.993 356.898 553.481 358.946ZM813.88 351.318C813.265 349.321 812.548 347.273 811.831 345.276L813.009 344.815C813.726 346.812 814.443 348.86 815.109 350.908L813.88 351.318ZM557.17 346.71L555.94 346.3C556.657 344.303 557.426 342.255 558.245 340.259L559.424 340.719C558.655 342.716 557.887 344.713 557.17 346.71ZM809.474 339.388C808.655 337.443 807.784 335.497 806.862 333.603L808.04 333.04C808.962 334.985 809.833 336.931 810.704 338.876L809.474 339.388ZM561.985 334.934L560.807 334.371C561.729 332.425 562.651 330.48 563.676 328.585L564.803 329.2C563.829 331.094 562.907 333.04 561.985 334.934ZM803.993 327.92C803.019 326.076 801.943 324.233 800.868 322.39L801.943 321.725C803.07 323.568 804.095 325.411 805.12 327.305L803.993 327.92ZM567.928 323.619L566.801 322.953C567.876 321.11 569.004 319.267 570.182 317.475L571.258 318.192C570.131 319.984 569.004 321.827 567.928 323.619ZM797.435 317.014C796.257 315.273 795.028 313.533 793.798 311.792L794.823 311.024C796.103 312.765 797.333 314.505 798.511 316.297L797.435 317.014ZM574.895 312.969L573.87 312.201C575.1 310.461 576.432 308.771 577.764 307.082L578.788 307.901C577.456 309.539 576.124 311.28 574.895 312.969ZM789.853 306.774C788.521 305.136 787.138 303.498 785.704 301.91L786.677 301.04C788.112 302.627 789.495 304.266 790.827 305.955L789.853 306.774ZM582.835 302.986L581.862 302.166C583.245 300.579 584.731 298.941 586.217 297.405L587.139 298.275C585.704 299.811 584.219 301.398 582.835 302.986ZM781.4 297.302C779.915 295.766 778.378 294.282 776.841 292.848L777.712 291.927C779.249 293.36 780.837 294.896 782.323 296.432L781.4 297.302ZM591.647 293.821L590.776 292.899C592.313 291.415 593.952 289.981 595.54 288.599L596.36 289.571C594.772 290.903 593.184 292.387 591.647 293.821ZM772.026 288.65C770.437 287.267 768.747 285.936 767.056 284.656L767.825 283.632C769.515 284.912 771.206 286.295 772.845 287.677L772.026 288.65ZM601.329 285.527L600.561 284.503C602.251 283.171 603.993 281.891 605.735 280.663L606.452 281.687C604.71 282.915 602.969 284.195 601.329 285.527ZM761.933 280.867C760.192 279.639 758.398 278.461 756.605 277.335L757.271 276.26C759.064 277.386 760.909 278.564 762.651 279.792L761.933 280.867ZM611.678 278.154L610.96 277.079C612.753 275.952 614.598 274.826 616.442 273.751L617.108 274.877C615.315 275.901 613.471 276.976 611.678 278.154ZM751.124 274.109C749.28 273.085 747.384 272.061 745.489 271.088L746.052 269.962C747.948 270.935 749.894 271.959 751.739 272.983L751.124 274.109ZM622.692 271.754L622.128 270.628C624.024 269.655 625.971 268.682 627.917 267.812L628.43 268.989C626.483 269.86 624.587 270.832 622.692 271.754ZM739.751 268.375C737.804 267.504 735.858 266.685 733.86 265.917L734.321 264.74C736.319 265.508 738.317 266.327 740.263 267.197L739.751 268.375ZM634.27 266.48L633.809 265.303C635.807 264.484 637.805 263.767 639.854 263.05L640.264 264.279C638.214 264.945 636.216 265.713 634.27 266.48ZM727.815 263.767C725.817 263.101 723.767 262.487 721.718 261.873L722.077 260.644C724.126 261.207 726.175 261.873 728.224 262.538L727.815 263.767ZM646.309 262.282L645.95 261.053C647.999 260.439 650.1 259.876 652.149 259.364L652.456 260.593C650.407 261.156 648.307 261.719 646.309 262.282ZM715.571 260.285C713.522 259.825 711.421 259.364 709.321 259.005L709.577 257.725C711.677 258.135 713.778 258.545 715.878 259.057L715.571 260.285ZM658.655 259.261L658.399 257.981C660.499 257.572 662.651 257.213 664.751 256.906L664.956 258.186C662.856 258.493 660.755 258.852 658.655 259.261ZM703.071 257.981C700.97 257.674 698.87 257.469 696.718 257.265L696.821 255.985C698.972 256.189 701.073 256.394 703.224 256.701L703.071 257.981ZM671.257 257.418L671.155 256.138C673.255 255.933 675.407 255.78 677.559 255.677L677.61 256.957C675.509 257.06 673.358 257.213 671.257 257.418ZM690.366 256.855C688.522 256.804 686.626 256.753 684.731 256.753C684.475 256.753 684.218 256.753 683.962 256.753V255.473C684.218 255.473 684.475 255.473 684.731 255.473C686.626 255.473 688.522 255.524 690.417 255.575L690.366 256.855Z" fill="#2667FF"/>
<path d="M130.379 378.863C128.227 378.863 126.076 378.76 123.924 378.607L124.026 377.327C126.127 377.48 128.278 377.583 130.379 377.583V378.863ZM136.834 378.658L136.731 377.378C138.832 377.224 140.983 377.019 143.032 376.763L143.186 378.043C141.137 378.299 138.985 378.504 136.834 378.658ZM117.571 377.839C115.471 377.531 113.319 377.122 111.219 376.661L111.475 375.432C113.524 375.893 115.625 376.303 117.725 376.61L117.571 377.839ZM149.59 376.917L149.334 375.688C151.383 375.279 153.483 374.715 155.481 374.152L155.84 375.381C153.791 375.944 151.69 376.456 149.59 376.917ZM104.969 375.074C102.92 374.459 100.871 373.743 98.8727 372.975L99.3338 371.797C101.332 372.565 103.33 373.231 105.379 373.845L104.969 375.074ZM161.987 373.333L161.526 372.156C163.524 371.439 165.471 370.62 167.418 369.749L167.93 370.927C165.983 371.797 163.985 372.616 161.987 373.333ZM92.9301 370.466C90.9834 369.544 89.0367 368.572 87.1924 367.548L87.8072 366.421C89.6514 367.445 91.5469 368.418 93.4936 369.34L92.9301 370.466ZM173.719 368.06L173.104 366.933C174.948 365.909 176.793 364.834 178.586 363.708L179.252 364.783C177.459 365.909 175.614 367.036 173.719 368.06ZM81.6597 364.168C79.8666 362.991 78.1248 361.762 76.383 360.431L77.1515 359.407C78.842 360.687 80.5838 361.916 82.3256 363.093L81.6597 364.168ZM184.579 361.096L183.811 360.072C185.502 358.792 187.192 357.461 188.78 356.079L189.6 357.052C187.961 358.485 186.27 359.868 184.579 361.096ZM71.4138 356.386C69.8257 354.953 68.2376 353.468 66.7519 351.932L67.674 351.01C69.1597 352.495 70.6966 353.98 72.2847 355.362L71.4138 356.386ZM194.313 352.7L193.391 351.778C194.877 350.293 196.362 348.757 197.745 347.119L198.719 347.938C197.336 349.628 195.85 351.215 194.313 352.7ZM62.3974 347.17C61.0142 345.532 59.6822 343.842 58.4015 342.102L59.4261 341.334C60.6556 343.023 61.9876 344.713 63.3708 346.3L62.3974 347.17ZM202.817 343.023L201.793 342.255C203.073 340.566 204.303 338.825 205.43 337.033L206.506 337.75C205.327 339.542 204.098 341.282 202.817 343.023ZM54.7642 336.828C53.6372 335.036 52.5101 333.142 51.5368 331.247L52.6638 330.633C53.6372 332.476 54.713 334.319 55.84 336.111L54.7642 336.828ZM209.784 332.22L208.657 331.606C209.682 329.763 210.655 327.868 211.526 325.923L212.704 326.435C211.833 328.38 210.86 330.326 209.784 332.22ZM48.6679 325.462C47.797 323.516 46.9774 321.519 46.2602 319.471L47.4897 319.062C48.2069 321.059 49.0265 323.004 49.8462 324.95L48.6679 325.462ZM215.163 320.495L213.985 320.035C214.702 318.038 215.42 316.041 215.983 313.993L217.213 314.352C216.649 316.4 215.932 318.499 215.163 320.495ZM44.3134 313.379C43.7499 311.331 43.2376 309.232 42.7765 307.132L44.0061 306.876C44.4159 308.924 44.9282 311.024 45.4917 313.072L44.3134 313.379ZM218.801 308.105L217.571 307.849C218.032 305.801 218.391 303.702 218.698 301.603L219.979 301.808C219.672 303.907 219.262 306.057 218.801 308.105ZM41.752 300.733C41.4958 298.633 41.2909 296.483 41.1372 294.333L42.418 294.281C42.5204 296.381 42.7253 298.531 43.0327 300.579L41.752 300.733ZM220.645 295.408L219.364 295.305C219.518 293.206 219.569 291.056 219.569 288.957H220.85C220.901 291.107 220.799 293.257 220.645 295.408ZM42.2643 287.882H40.9835C40.9835 285.731 41.086 283.581 41.2909 281.43L42.5716 281.533C42.3667 283.683 42.2643 285.782 42.2643 287.882ZM219.518 284.707C219.415 282.608 219.262 280.458 219.006 278.358L220.286 278.205C220.542 280.304 220.696 282.506 220.799 284.605L219.518 284.707ZM43.2888 275.235L42.0081 275.031C42.3155 272.931 42.7253 270.781 43.2376 268.682L44.4671 268.989C44.0061 271.088 43.5962 273.187 43.2888 275.235ZM217.981 272.061C217.571 270.013 217.11 267.914 216.547 265.866L217.776 265.559C218.34 267.607 218.801 269.757 219.211 271.856L217.981 272.061ZM46.1577 262.896L44.9282 262.538C45.5429 260.49 46.2602 258.442 47.0286 256.445L48.2069 256.906C47.4384 258.852 46.7724 260.848 46.1577 262.896ZM214.702 259.824C213.985 257.828 213.217 255.831 212.397 253.936L213.575 253.424C214.446 255.37 215.215 257.418 215.932 259.415L214.702 259.824ZM50.7683 251.018L49.5901 250.455C50.5122 248.509 51.4855 246.615 52.5614 244.721L53.6884 245.335C52.6126 247.229 51.6392 249.124 50.7683 251.018ZM209.682 248.202C208.708 246.308 207.684 244.465 206.557 242.673L207.633 242.007C208.76 243.85 209.836 245.693 210.809 247.588L209.682 248.202ZM57.0183 239.959L55.9425 239.242C57.1208 237.45 58.4015 235.709 59.6822 234.02L60.7068 234.788C59.4261 236.477 58.1454 238.218 57.0183 239.959ZM203.022 237.348C201.793 235.658 200.461 233.969 199.129 232.33L200.102 231.511C201.485 233.15 202.817 234.89 204.047 236.631L203.022 237.348ZM64.754 229.924L63.7806 229.054C65.215 227.466 66.7007 225.879 68.2376 224.394L69.1085 225.316C67.674 226.801 66.1884 228.337 64.754 229.924ZM194.928 227.62C193.442 226.084 191.957 224.599 190.368 223.217L191.239 222.244C192.827 223.678 194.364 225.214 195.85 226.75L194.928 227.62ZM73.8728 221.066L73.0531 220.094C74.6925 218.711 76.383 217.38 78.1248 216.151L78.8933 217.175C77.2027 218.404 75.5121 219.735 73.8728 221.066ZM185.502 219.07C183.862 217.79 182.12 216.51 180.379 215.332L181.096 214.257C182.889 215.435 184.631 216.715 186.321 218.046L185.502 219.07ZM84.1699 213.643L83.5039 212.567C85.2969 211.441 87.1924 210.366 89.0879 209.342L89.7027 210.468C87.8072 211.441 85.9629 212.516 84.1699 213.643ZM174.948 212.004C173.104 210.929 171.209 209.956 169.313 209.035L169.877 207.857C171.823 208.779 173.719 209.803 175.563 210.878L174.948 212.004ZM95.3891 207.703L94.8768 206.526C96.8235 205.656 98.8727 204.887 100.871 204.171L101.281 205.4C99.2826 206.116 97.3358 206.884 95.3891 207.703ZM163.473 206.475C161.526 205.707 159.477 204.99 157.479 204.376L157.838 203.147C159.887 203.812 161.936 204.529 163.934 205.297L163.473 206.475ZM107.326 203.505L106.967 202.276C109.016 201.713 111.117 201.201 113.217 200.792L113.473 202.072C111.475 202.43 109.375 202.942 107.326 203.505ZM151.383 202.686C149.334 202.225 147.233 201.764 145.133 201.457L145.338 200.177C147.438 200.536 149.59 200.945 151.639 201.406L151.383 202.686ZM119.826 200.996L119.672 199.716C121.772 199.46 123.975 199.256 126.076 199.153L126.127 200.433C124.026 200.587 121.875 200.74 119.826 200.996ZM138.832 200.689C136.731 200.484 134.58 200.382 132.479 200.331V199.051C134.631 199.102 136.782 199.204 138.934 199.409L138.832 200.689Z" fill="#2667FF"/>
<path d="M491.135 73.4075C479.199 73.4075 469.516 63.7308 469.516 51.8014C469.516 39.872 479.199 30.1953 491.135 30.1953C503.072 30.1953 512.754 39.872 512.754 51.8014C512.754 63.7308 503.02 73.4075 491.135 73.4075ZM491.135 31.1681C479.762 31.1681 470.49 40.4352 470.49 51.8014C470.49 63.1676 479.762 72.4347 491.135 72.4347C502.508 72.4347 511.781 63.1676 511.781 51.8014C511.781 40.4352 502.508 31.1681 491.135 31.1681Z" fill="#2667FF"/>
<path d="M715.981 150.975V540.192C715.981 548.281 709.423 554.834 701.329 554.834H135.348C127.254 554.834 120.696 548.281 120.696 540.192V150.975C120.696 142.886 127.254 136.281 135.348 136.281H701.278C709.423 136.281 715.981 142.835 715.981 150.975Z" fill="white"/>
<path d="M701.329 555.499H135.348C126.895 555.499 120.03 548.638 120.03 540.191V150.975C120.03 142.527 126.895 135.666 135.348 135.666H701.278C709.73 135.666 716.595 142.527 716.595 150.975V540.139C716.595 548.587 709.73 555.499 701.329 555.499ZM135.348 136.946C127.612 136.946 121.311 143.244 121.311 150.975V540.139C121.311 547.871 127.612 554.168 135.348 554.168H701.278C709.013 554.168 715.314 547.871 715.314 540.139V150.975C715.314 143.244 709.013 136.946 701.278 136.946H135.348Z" fill="#2667FF"/>
<path d="M715.981 150.977V174.068H120.697V150.977C120.697 142.888 127.254 136.283 135.348 136.283H701.278C709.423 136.283 715.981 142.837 715.981 150.977Z" fill="white"/>
<path d="M716.595 174.68H120.03V150.924C120.03 142.476 126.895 135.615 135.348 135.615H701.278C709.73 135.615 716.595 142.476 716.595 150.924V174.68ZM121.311 173.4H715.314V150.924C715.314 143.193 709.013 136.895 701.278 136.895H135.348C127.612 136.895 121.311 143.193 121.311 150.924V173.4Z" fill="#2667FF"/>
<path d="M153.739 161.984C157.502 161.984 160.553 158.936 160.553 155.175C160.553 151.414 157.502 148.365 153.739 148.365C149.976 148.365 146.926 151.414 146.926 155.175C146.926 158.936 149.976 161.984 153.739 161.984Z" fill="#2856CC"/>
<path d="M179.815 148.365C176.024 148.365 173.001 151.437 173.001 155.175C173.001 158.963 176.075 161.984 179.815 161.984C183.554 161.984 186.628 158.912 186.628 155.175C186.628 151.386 183.554 148.365 179.815 148.365Z" fill="#2856CC"/>
<path d="M205.839 161.984C202.048 161.984 199.026 158.912 199.026 155.175C199.026 151.386 202.1 148.365 205.839 148.365C209.63 148.365 212.653 151.437 212.653 155.175C212.653 158.963 209.579 161.984 205.839 161.984ZM205.839 149.645C202.765 149.645 200.306 152.154 200.306 155.175C200.306 158.247 202.817 160.704 205.839 160.704C208.913 160.704 211.372 158.195 211.372 155.175C211.372 152.103 208.913 149.645 205.839 149.645Z" fill="#2667FF"/>
<path d="M373.923 162.751H246.925C242.724 162.751 239.343 159.32 239.343 155.173C239.343 151.026 242.776 147.596 246.925 147.596H373.871C378.072 147.596 381.453 151.026 381.453 155.173C381.453 159.32 378.072 162.751 373.923 162.751ZM246.925 148.876C243.441 148.876 240.624 151.692 240.624 155.173C240.624 158.655 243.441 161.471 246.925 161.471H373.871C377.355 161.471 380.173 158.655 380.173 155.173C380.173 151.692 377.355 148.876 373.871 148.876H246.925Z" fill="#2667FF"/>
<path d="M535.346 355.158C535.346 416.443 485.654 466.106 424.332 466.106C363.011 466.106 313.267 416.443 313.267 355.158C313.267 297.661 357.017 250.404 413.062 244.721L416.75 281.123C379.199 284.912 349.896 316.604 349.896 355.106C349.896 396.168 383.195 429.499 424.281 429.499C465.367 429.499 498.666 396.219 498.666 355.106C498.666 347.938 497.641 341.027 495.746 334.473L530.941 324.336C533.809 334.115 535.346 344.457 535.346 355.158Z" fill="#2667FF"/>
<path d="M424.332 444.758C473.845 444.758 513.984 404.643 513.984 355.159C513.984 305.675 473.845 265.561 424.332 265.561C374.819 265.561 334.681 305.675 334.681 355.159C334.681 404.643 374.819 444.758 424.332 444.758Z" fill="white"/>
<path opacity="0.5" d="M424.332 444.758C473.845 444.758 513.984 404.643 513.984 355.159C513.984 305.675 473.845 265.561 424.332 265.561C374.819 265.561 334.681 305.675 334.681 355.159C334.681 404.643 374.819 444.758 424.332 444.758Z" fill="#87BFFF"/>
<path d="M424.332 418.646C459.416 418.646 487.857 390.222 487.857 355.159C487.857 320.096 459.416 291.672 424.332 291.672C389.249 291.672 360.808 320.096 360.808 355.159C360.808 390.222 389.249 418.646 424.332 418.646Z" fill="white"/>
<path d="M431.556 386.391V396.017H419.312V386.801C410.603 386.289 402.201 383.934 396.976 380.708L403.584 365.758C409.322 369.137 416.955 371.339 423.666 371.339C429.506 371.339 431.607 370.11 431.607 368.011C431.607 360.382 397.949 366.526 397.949 343.845C397.949 334.014 405.07 325.771 419.363 323.775V314.303H431.607V323.621C438.062 324.235 444.312 325.874 449.281 328.69L443.082 343.538C437.088 340.517 431.402 339.032 426.125 339.032C420.131 339.032 418.185 340.773 418.185 342.872C418.185 350.193 451.842 344.101 451.842 366.526C451.842 375.844 445.029 384.036 431.556 386.391Z" fill="#2667FF"/>
<path d="M819.566 60.3535H578.02V207.961H819.566V60.3535Z" fill="white"/>
<path d="M820.232 208.626H577.405V59.7383H820.232V208.626ZM578.686 207.346H818.952V61.0183H578.686V207.346Z" fill="#2667FF"/>
<path d="M622.333 161.012H608.45V186.509H622.333V161.012Z" fill="#2667FF"/>
<path d="M650.099 149.34H636.216V186.511H650.099V149.34Z" fill="#2667FF"/>
<path d="M677.917 158.861H664.034V186.509H677.917V158.861Z" fill="#2667FF"/>
<path d="M705.735 139.406H691.851V186.51H705.735V139.406Z" fill="#2667FF"/>
<path d="M733.552 126.963H719.669V186.508H733.552V126.963Z" fill="#2667FF"/>
<path d="M761.318 109.197H747.435V186.508H761.318V109.197Z" fill="#2667FF"/>
<path d="M789.136 81.8574H775.253V186.509H789.136V81.8574Z" fill="#2667FF"/>
<path d="M619.516 94.2461H608.45V106.739H619.516V94.2461Z" fill="#87BFFF"/>
<path d="M711.421 100.031H636.575V103.257H711.421V100.031Z" fill="#87BFFF"/>
<path d="M602.2 282.816L586.882 240.576C569.618 246.822 557.272 263.36 557.272 282.816C557.272 307.596 577.405 327.717 602.2 327.717C626.995 327.717 647.128 307.596 647.128 282.816C647.128 275.34 645.284 268.326 642.056 262.131L602.2 282.816Z" fill="#E6F4FF"/>
<path d="M648.102 246.155C640.622 231.768 625.561 221.938 608.245 221.938C602.866 221.938 597.743 222.859 592.928 224.6L608.245 266.839L648.102 246.155Z" fill="#2667FF"/>
<path d="M665.827 426.734H559.526V527.853H665.827V426.734Z" fill="#E6F4FF"/>
<path d="M635.704 453.615H576.176V457.865H635.704V453.615Z" fill="white"/>
<path d="M635.704 466.414H576.176V470.664H635.704V466.414Z" fill="white"/>
<path d="M260.04 233.457H167.622V389.615H260.04V233.457Z" fill="#E6F4FF"/>
<path d="M242.315 256.088H181.711V311.537H242.315V256.088Z" fill="white"/>
<path d="M182.151 255.611L181.286 256.555L241.902 312.006L242.767 311.062L182.151 255.611Z" fill="#E6F4FF"/>
<path d="M241.856 255.652L181.249 311.104L182.114 312.047L242.721 256.596L241.856 255.652Z" fill="#E6F4FF"/>
<path d="M212.038 297.254H0.614746V436.465H212.038V297.254Z" fill="white"/>
<path d="M212.653 437.078H0V296.639H212.653V437.078ZM1.2295 435.85H211.424V297.867H1.2295V435.85Z" fill="#2667FF"/>
<path d="M22.8992 402.83L36.5774 377.23L64.7536 403.7L83.5035 349.07L118.544 387.47L141.598 378.1L183.401 323.471" fill="white"/>
<path d="M65.01 404.825L36.7314 378.304L23.463 403.136L22.3359 402.521L36.3728 376.205L64.4465 402.573L83.2477 347.841L118.698 386.701L141.188 377.587L182.889 323.111L183.913 323.879L142.008 378.611L118.34 388.237L118.032 387.93L83.76 350.298L65.01 404.825Z" fill="#2667FF"/>
<path d="M36.6805 380.659C38.6327 380.659 40.2153 379.078 40.2153 377.126C40.2153 375.175 38.6327 373.594 36.6805 373.594C34.7282 373.594 33.1456 375.175 33.1456 377.126C33.1456 379.078 34.7282 380.659 36.6805 380.659Z" fill="#2667FF"/>
<path d="M64.549 406.565C66.5012 406.565 68.0838 404.984 68.0838 403.033C68.0838 401.082 66.5012 399.5 64.549 399.5C62.5968 399.5 61.0142 401.082 61.0142 403.033C61.0142 404.984 62.5968 406.565 64.549 406.565Z" fill="#2667FF"/>
<path d="M83.7088 352.806C85.661 352.806 87.2436 351.224 87.2436 349.273C87.2436 347.322 85.661 345.74 83.7088 345.74C81.7566 345.74 80.174 347.322 80.174 349.273C80.174 351.224 81.7566 352.806 83.7088 352.806Z" fill="#2667FF"/>
<path d="M151.178 319.422H61.5266V320.702H151.178V319.422Z" fill="#2667FF"/>
</svg>
