<svg width="847" height="529" viewBox="0 0 847 529" fill="none" xmlns="http://www.w3.org/2000/svg">
<path opacity="0.4" d="M817.115 484.864C833.62 468.368 833.62 441.624 817.115 425.129C800.61 408.633 773.85 408.633 757.345 425.129C740.84 441.624 740.84 468.368 757.345 484.864C773.85 501.359 800.61 501.359 817.115 484.864Z" fill="#ADD7F6"/>
<path opacity="0.4" d="M137.413 205.755C162.601 180.582 162.601 139.769 137.413 114.596C112.225 89.4232 71.388 89.4232 46.2003 114.596C21.0127 139.769 21.0127 180.582 46.2003 205.755C71.388 230.928 112.225 230.928 137.413 205.755Z" fill="#ADD7F6"/>
<path opacity="0.4" d="M314.812 98.2389C333.372 98.2389 348.418 83.2016 348.418 64.6521C348.418 46.1027 333.372 31.0654 314.812 31.0654C296.252 31.0654 281.206 46.1027 281.206 64.6521C281.206 83.2016 296.252 98.2389 314.812 98.2389Z" fill="#ADD7F6"/>
<path d="M266.657 81.2413C264.556 81.2413 262.456 81.0877 260.407 80.7293L260.612 79.4493C262.61 79.7565 264.659 79.9101 266.657 79.9101H266.913V81.1901L266.657 81.2413ZM273.419 80.6781L273.214 79.3981C275.263 79.0397 277.313 78.5277 279.31 77.8621L279.72 79.0909C277.671 79.8077 275.519 80.3197 273.419 80.6781ZM254.106 79.2445C252.056 78.5789 250.007 77.7085 248.112 76.7357L248.675 75.6093C250.52 76.5821 252.466 77.4013 254.464 78.0157L254.106 79.2445ZM285.663 76.5309L285.048 75.4045C286.892 74.4317 288.685 73.3054 290.376 72.0254L291.144 73.0494C289.403 74.3294 287.558 75.5069 285.663 76.5309ZM242.63 73.3054C240.888 72.0254 239.249 70.5918 237.712 69.0558L238.634 68.1854C240.12 69.6702 241.708 71.0526 243.399 72.3326L242.63 73.3054ZM295.96 68.6974L295.038 67.827C296.472 66.2911 297.804 64.6527 298.983 62.9119L300.058 63.6287C298.829 65.4207 297.497 67.1103 295.96 68.6974ZM233.563 64.0383C232.333 62.2463 231.206 60.4032 230.284 58.4576L231.462 57.8944C232.384 59.7888 233.46 61.6319 234.638 63.3215L233.563 64.0383ZM303.286 57.9968L302.108 57.4336C302.978 55.5392 303.747 53.5425 304.31 51.5457L305.54 51.9041C304.976 54.0032 304.208 56.0512 303.286 57.9968ZM227.927 52.3649C227.313 50.2657 226.852 48.1665 226.544 46.0162L227.825 45.8626C228.081 47.9105 228.542 50.0097 229.157 52.0065L227.927 52.3649ZM306.821 45.5554L305.54 45.4018C305.694 43.917 305.796 42.381 305.796 40.845C305.796 40.2818 305.796 39.6674 305.745 39.1043L307.026 39.053C307.077 39.6674 307.077 40.2306 307.077 40.845C307.128 42.381 307.026 43.9682 306.821 45.5554ZM227.518 39.565L226.237 39.5139C226.288 37.3635 226.544 35.1619 226.954 33.0627L228.235 33.3187C227.825 35.3667 227.62 37.5171 227.518 39.565ZM305.028 32.8579C304.618 30.81 304.003 28.762 303.235 26.8164L304.413 26.3556C305.181 28.4036 305.796 30.5028 306.257 32.602L305.028 32.8579ZM229.977 27.2772L228.798 26.8164C229.567 24.7685 230.489 22.8229 231.513 20.9285L232.64 21.5429C231.565 23.3861 230.694 25.3316 229.977 27.2772ZM303.132 26.5092C302.364 24.5637 301.442 22.6693 300.366 20.8773L301.493 20.2117C302.569 22.0549 303.542 24.0517 304.362 26.0484L303.132 26.5092ZM236.124 16.3718L235.1 15.5526C236.431 13.863 237.968 12.2758 239.556 10.8423L240.427 11.815C238.89 13.1974 237.456 14.7334 236.124 16.3718ZM296.728 15.7574C295.396 14.1702 293.911 12.6342 292.323 11.2518L293.142 10.2791C294.782 11.7126 296.319 13.2486 297.702 14.887L296.728 15.7574ZM245.448 7.9751L244.731 6.89991C246.524 5.72233 248.47 4.69834 250.468 3.82795L250.981 5.00553C249.034 5.82472 247.19 6.84871 245.448 7.9751ZM287.251 7.51431C285.458 6.43912 283.562 5.46633 281.667 4.64714L282.179 3.46955C284.177 4.28874 286.124 5.31274 287.968 6.43912L287.251 7.51431ZM256.923 2.95756L256.616 1.72878C258.716 1.16559 260.868 0.807202 263.02 0.602405L263.122 1.88239C261.022 2.03598 258.972 2.39437 256.923 2.95756ZM275.622 2.75276C273.573 2.29197 271.472 1.93358 269.423 1.77998L269.526 0.5C271.677 0.653598 273.829 0.96079 275.929 1.47278L275.622 2.75276Z" fill="#2667FF"/>
<path d="M670.139 528.569V527.289C672.239 527.237 674.391 527.186 676.491 527.033L676.593 528.313C674.442 528.466 672.29 528.517 670.139 528.569ZM663.735 528.517C661.583 528.466 659.432 528.364 657.331 528.159L657.434 526.879C659.534 527.033 661.686 527.135 663.786 527.186L663.735 528.517ZM682.997 527.749L682.843 526.469C684.944 526.213 687.095 525.957 689.145 525.599L689.35 526.879C687.249 527.237 685.098 527.545 682.997 527.749ZM650.928 527.596C648.827 527.34 646.676 527.033 644.575 526.674L644.78 525.394C646.88 525.753 648.981 526.06 651.081 526.316L650.928 527.596ZM695.702 525.753L695.446 524.524C697.546 524.114 699.595 523.602 701.645 523.09L701.952 524.319C699.903 524.831 697.802 525.292 695.702 525.753ZM638.223 525.394C636.122 524.933 634.022 524.421 631.973 523.858L632.331 522.629C634.381 523.193 636.43 523.705 638.53 524.165L638.223 525.394ZM708.151 522.527L707.792 521.298C709.79 520.684 711.839 520.018 713.837 519.25L714.298 520.479C712.249 521.196 710.2 521.913 708.151 522.527ZM625.825 522.066C623.776 521.401 621.727 520.684 619.729 519.967L620.19 518.79C622.188 519.558 624.186 520.223 626.235 520.889L625.825 522.066ZM720.241 518.175L719.729 516.998C721.675 516.178 723.622 515.308 725.518 514.438L726.081 515.615C724.134 516.486 722.188 517.356 720.241 518.175ZM613.735 517.51C611.788 516.639 609.79 515.769 607.895 514.847L608.458 513.721C610.354 514.642 612.301 515.564 614.247 516.383L613.735 517.51ZM731.819 512.697L731.204 511.57C733.048 510.598 734.944 509.522 736.737 508.447L737.403 509.574C735.61 510.649 733.714 511.673 731.819 512.697ZM602.157 511.878C600.262 510.854 598.417 509.778 596.573 508.652L597.239 507.577C599.032 508.703 600.928 509.778 602.772 510.751L602.157 511.878ZM742.884 506.143L742.167 505.068C743.96 503.891 745.702 502.662 747.392 501.433L748.161 502.457C746.419 503.737 744.677 504.966 742.884 506.143ZM591.194 505.17C589.452 503.993 587.659 502.713 585.969 501.433L586.737 500.409C588.428 501.689 590.17 502.918 591.911 504.095L591.194 505.17ZM753.233 498.566L752.413 497.593C754.052 496.262 755.692 494.879 757.28 493.497L758.151 494.47C756.563 495.852 754.923 497.235 753.233 498.566ZM580.897 497.439C579.258 496.057 577.618 494.675 576.03 493.241L576.901 492.268C578.489 493.702 580.077 495.084 581.717 496.415L580.897 497.439ZM762.864 490.067L761.993 489.145C763.53 487.66 765.015 486.124 766.45 484.588L767.372 485.459C765.938 487.046 764.401 488.582 762.864 490.067ZM571.368 488.838C569.832 487.353 568.346 485.766 566.911 484.179L567.834 483.308C569.268 484.844 570.754 486.432 572.239 487.916L571.368 488.838ZM771.675 480.697L770.702 479.878C772.085 478.291 773.417 476.601 774.749 474.963L775.774 475.731C774.442 477.369 773.058 479.059 771.675 480.697ZM562.659 479.366C561.276 477.728 559.944 476.038 558.663 474.349L559.688 473.581C560.969 475.27 562.301 476.96 563.633 478.547L562.659 479.366ZM779.564 470.509L778.54 469.792C779.769 468.051 780.948 466.259 782.075 464.518L783.151 465.184C782.023 466.976 780.794 468.768 779.564 470.509ZM554.924 469.126C553.694 467.385 552.516 465.542 551.44 463.75L552.516 463.085C553.643 464.877 554.77 466.669 556 468.409L554.924 469.126ZM786.48 459.654L785.353 459.04C786.378 457.197 787.403 455.302 788.376 453.408L789.503 453.971C788.581 455.917 787.556 457.811 786.48 459.654ZM548.161 458.17C547.137 456.326 546.112 454.381 545.19 452.486L546.317 451.923C547.239 453.818 548.264 455.712 549.288 457.555L548.161 458.17ZM792.321 448.186L791.142 447.674C792.013 445.728 792.833 443.783 793.653 441.786L794.831 442.247C794.062 444.243 793.243 446.24 792.321 448.186ZM542.475 446.701C541.604 444.755 540.784 442.759 540.067 440.762L541.245 440.301C542.014 442.247 542.782 444.243 543.653 446.189L542.475 446.701ZM797.085 436.205L795.855 435.795C796.521 433.799 797.187 431.751 797.751 429.703L798.98 430.061C798.417 432.16 797.751 434.208 797.085 436.205ZM537.916 434.72C537.25 432.672 536.635 430.624 536.071 428.576L537.301 428.218C537.864 430.266 538.479 432.314 539.145 434.311L537.916 434.72ZM800.671 423.866L799.442 423.559C799.954 421.511 800.364 419.412 800.773 417.313L802.054 417.569C801.593 419.719 801.132 421.818 800.671 423.866ZM534.483 422.33C534.022 420.282 533.561 418.132 533.203 416.033L534.483 415.828C534.842 417.927 535.303 420.026 535.764 422.074L534.483 422.33ZM803.028 411.271L801.747 411.117C802.054 409.018 802.31 406.919 802.464 404.769L803.745 404.871C803.591 407.022 803.335 409.172 803.028 411.271ZM532.229 409.633C531.973 407.533 531.717 405.383 531.563 403.233L532.844 403.13C532.998 405.23 533.254 407.38 533.51 409.479L532.229 409.633ZM804.257 398.471L802.976 398.42C803.079 396.321 803.13 394.171 803.13 392.071H804.411C804.411 394.171 804.36 396.321 804.257 398.471ZM531.205 396.833C531.153 395.246 531.102 393.607 531.102 392.02C531.102 391.457 531.102 390.945 531.102 390.382H532.383C532.383 390.894 532.383 391.457 532.383 391.969C532.383 393.556 532.434 395.143 532.485 396.73L531.205 396.833ZM803.079 388.897C803.028 386.798 802.925 384.647 802.771 382.548L804.052 382.446C804.206 384.545 804.308 386.747 804.36 388.846L803.079 388.897ZM532.639 384.084L531.358 384.033C531.461 381.883 531.666 379.732 531.87 377.633L533.151 377.787C532.895 379.835 532.741 381.934 532.639 384.084ZM802.208 376.2C801.952 374.1 801.644 372.001 801.337 369.902L802.618 369.697C802.976 371.796 803.284 373.947 803.489 376.046L802.208 376.2ZM533.971 371.387L532.69 371.182C532.998 369.083 533.407 366.932 533.817 364.833L535.098 365.089C534.637 367.188 534.278 369.339 533.971 371.387ZM800.108 363.656C799.646 361.608 799.185 359.509 798.622 357.461L799.851 357.153C800.415 359.201 800.876 361.301 801.337 363.4L800.108 363.656ZM536.481 358.945L535.252 358.638C535.764 356.59 536.327 354.491 536.993 352.443L538.223 352.801C537.557 354.798 536.993 356.897 536.481 358.945ZM796.88 351.317C796.265 349.32 795.548 347.272 794.831 345.275L796.009 344.814C796.726 346.811 797.444 348.859 798.11 350.907L796.88 351.317ZM540.17 346.709L538.94 346.299C539.657 344.302 540.426 342.254 541.245 340.258L542.424 340.718C541.655 342.715 540.887 344.712 540.17 346.709ZM792.474 339.387C791.655 337.442 790.784 335.496 789.862 333.602L791.04 333.039C791.962 334.984 792.833 336.93 793.704 338.875L792.474 339.387ZM544.985 334.933L543.807 334.37C544.729 332.424 545.651 330.479 546.676 328.584L547.803 329.199C546.83 331.093 545.907 333.039 544.985 334.933ZM786.993 327.919C786.019 326.075 784.944 324.232 783.868 322.389L784.944 321.724C786.071 323.567 787.095 325.41 788.12 327.304L786.993 327.919ZM550.928 323.618L549.801 322.952C550.877 321.109 552.004 319.266 553.182 317.474L554.258 318.191C553.131 319.983 552.004 321.826 550.928 323.618ZM780.435 317.013C779.257 315.272 778.028 313.532 776.798 311.791L777.823 311.023C779.103 312.764 780.333 314.504 781.511 316.296L780.435 317.013ZM557.895 312.968L556.87 312.2C558.1 310.46 559.432 308.77 560.764 307.081L561.788 307.9C560.456 309.538 559.125 311.279 557.895 312.968ZM772.853 306.773C771.521 305.135 770.138 303.497 768.704 301.909L769.677 301.039C771.112 302.626 772.495 304.265 773.827 305.954L772.853 306.773ZM565.836 302.985L564.862 302.165C566.245 300.578 567.731 298.94 569.217 297.404L570.139 298.274C568.704 299.81 567.219 301.397 565.836 302.985ZM764.401 297.301C762.915 295.766 761.378 294.281 759.841 292.847L760.712 291.926C762.249 293.359 763.837 294.895 765.323 296.431L764.401 297.301ZM574.647 293.82L573.776 292.898C575.313 291.414 576.952 289.98 578.54 288.598L579.36 289.57C577.772 290.902 576.184 292.386 574.647 293.82ZM755.026 288.649C753.438 287.266 751.747 285.935 750.056 284.655L750.825 283.631C752.515 284.911 754.206 286.294 755.845 287.676L755.026 288.649ZM584.329 285.526L583.561 284.502C585.252 283.17 586.993 281.891 588.735 280.662L589.452 281.686C587.711 282.914 585.969 284.194 584.329 285.526ZM744.933 280.867C743.192 279.638 741.399 278.46 739.606 277.334L740.272 276.259C742.065 277.385 743.909 278.563 745.651 279.791L744.933 280.867ZM594.678 278.153L593.961 277.078C595.754 275.951 597.598 274.825 599.442 273.75L600.108 274.876C598.315 275.9 596.471 276.975 594.678 278.153ZM734.124 274.108C732.28 273.084 730.384 272.06 728.489 271.087L729.052 269.961C730.948 270.934 732.895 271.958 734.739 272.982L734.124 274.108ZM605.692 271.753L605.128 270.627C607.024 269.654 608.971 268.681 610.917 267.811L611.43 268.988C609.483 269.859 607.588 270.831 605.692 271.753ZM722.751 268.374C720.804 267.504 718.858 266.684 716.86 265.916L717.321 264.739C719.319 265.507 721.317 266.326 723.263 267.196L722.751 268.374ZM617.27 266.48L616.809 265.302C618.807 264.483 620.805 263.766 622.854 263.049L623.264 264.278C621.215 264.944 619.217 265.712 617.27 266.48ZM710.815 263.766C708.817 263.1 706.768 262.486 704.718 261.872L705.077 260.643C707.126 261.206 709.175 261.872 711.225 262.537L710.815 263.766ZM629.309 262.281L628.95 261.052C630.999 260.438 633.1 259.875 635.149 259.363L635.456 260.592C633.407 261.155 631.307 261.718 629.309 262.281ZM698.571 260.284C696.522 259.824 694.421 259.363 692.321 259.004L692.577 257.724C694.677 258.134 696.778 258.544 698.878 259.056L698.571 260.284ZM641.655 259.26L641.399 257.98C643.499 257.571 645.651 257.212 647.751 256.905L647.956 258.185C645.856 258.492 643.755 258.851 641.655 259.26ZM686.071 257.98C683.97 257.673 681.87 257.468 679.719 257.264L679.821 255.984C681.973 256.188 684.073 256.393 686.225 256.7L686.071 257.98ZM654.257 257.417L654.155 256.137C656.255 255.932 658.407 255.779 660.559 255.676L660.61 256.956C658.51 257.059 656.358 257.212 654.257 257.417ZM673.366 256.854C671.522 256.803 669.626 256.752 667.731 256.752C667.475 256.752 667.219 256.752 666.962 256.752V255.472C667.219 255.472 667.475 255.472 667.731 255.472C669.626 255.472 671.522 255.523 673.417 255.574L673.366 256.854Z" fill="#2667FF"/>
<path d="M113.379 378.863C111.227 378.863 109.076 378.76 106.924 378.607L107.026 377.327C109.127 377.48 111.278 377.583 113.379 377.583V378.863ZM119.834 378.658L119.731 377.378C121.832 377.224 123.983 377.019 126.033 376.763L126.186 378.043C124.137 378.299 121.985 378.504 119.834 378.658ZM100.572 377.839C98.4712 377.531 96.3195 377.122 94.2191 376.661L94.4753 375.432C96.5244 375.893 98.6249 376.303 100.725 376.61L100.572 377.839ZM132.59 376.917L132.334 375.688C134.383 375.279 136.483 374.715 138.481 374.152L138.84 375.381C136.791 375.944 134.69 376.456 132.59 376.917ZM87.9691 375.074C85.92 374.459 83.8708 373.743 81.8728 372.975L82.3339 371.797C84.3319 372.565 86.3298 373.231 88.379 373.845L87.9691 375.074ZM144.987 373.333L144.526 372.156C146.524 371.439 148.471 370.62 150.418 369.749L150.93 370.927C148.983 371.797 146.985 372.616 144.987 373.333ZM75.9302 370.466C73.9835 369.544 72.0368 368.572 70.1925 367.548L70.8073 366.421C72.6516 367.445 74.547 368.418 76.4938 369.34L75.9302 370.466ZM156.719 368.06L156.104 366.933C157.948 365.909 159.793 364.834 161.586 363.708L162.252 364.783C160.459 365.909 158.614 367.036 156.719 368.06ZM64.6598 364.168C62.8668 362.991 61.1249 361.762 59.3831 360.431L60.1516 359.407C61.8422 360.687 63.584 361.916 65.3258 363.093L64.6598 364.168ZM167.58 361.096L166.811 360.072C168.502 358.792 170.192 357.461 171.78 356.079L172.6 357.052C170.961 358.485 169.27 359.868 167.58 361.096ZM54.4139 356.386C52.8258 354.953 51.2377 353.468 49.752 351.932L50.6742 351.01C52.1598 352.495 53.6967 353.98 55.2848 355.362L54.4139 356.386ZM177.313 352.7L176.391 351.778C177.877 350.293 179.362 348.757 180.746 347.119L181.719 347.938C180.336 349.628 178.85 351.215 177.313 352.7ZM45.3975 347.17C44.0143 345.532 42.6824 343.842 41.4016 342.102L42.4262 341.334C43.6557 343.023 44.9877 344.713 46.3709 346.3L45.3975 347.17ZM185.817 343.023L184.793 342.255C186.073 340.566 187.303 338.825 188.43 337.033L189.506 337.75C188.327 339.542 187.098 341.282 185.817 343.023ZM37.7644 336.828C36.6373 335.036 35.5103 333.142 34.5369 331.247L35.6639 330.633C36.6373 332.476 37.7131 334.319 38.8402 336.111L37.7644 336.828ZM192.784 332.22L191.657 331.606C192.682 329.763 193.655 327.868 194.526 325.923L195.705 326.435C194.834 328.38 193.86 330.326 192.784 332.22ZM31.668 325.462C30.7971 323.516 29.9775 321.519 29.2603 319.471L30.4898 319.062C31.207 321.059 32.0267 323.004 32.8463 324.95L31.668 325.462ZM198.164 320.495L196.985 320.035C197.702 318.038 198.42 316.041 198.983 313.993L200.213 314.352C199.649 316.4 198.932 318.499 198.164 320.495ZM27.3136 313.379C26.75 311.331 26.2377 309.232 25.7767 307.132L27.0062 306.876C27.416 308.924 27.9283 311.024 28.4918 313.072L27.3136 313.379ZM201.801 308.105L200.571 307.849C201.032 305.801 201.391 303.702 201.698 301.603L202.979 301.808C202.672 303.907 202.262 306.057 201.801 308.105ZM24.7521 300.733C24.4959 298.633 24.291 296.483 24.1373 294.333L25.4181 294.281C25.5205 296.381 25.7254 298.531 26.0328 300.579L24.7521 300.733ZM203.645 295.408L202.364 295.305C202.518 293.206 202.569 291.056 202.569 288.957H203.85C203.901 291.107 203.799 293.257 203.645 295.408ZM25.2644 287.882H23.9836C23.9836 285.731 24.0861 283.581 24.291 281.43L25.5718 281.533C25.3668 283.683 25.2644 285.782 25.2644 287.882ZM202.518 284.707C202.416 282.608 202.262 280.458 202.006 278.358L203.286 278.205C203.543 280.304 203.696 282.506 203.799 284.605L202.518 284.707ZM26.289 275.235L25.0082 275.031C25.3156 272.931 25.7255 270.781 26.2377 268.682L27.4672 268.989C27.0062 271.088 26.5963 273.187 26.289 275.235ZM200.981 272.061C200.571 270.013 200.11 267.914 199.547 265.866L200.776 265.559C201.34 267.607 201.801 269.757 202.211 271.856L200.981 272.061ZM29.1578 262.896L27.9283 262.538C28.5431 260.49 29.2603 258.442 30.0287 256.445L31.207 256.906C30.4385 258.852 29.7726 260.848 29.1578 262.896ZM197.702 259.824C196.985 257.828 196.217 255.831 195.397 253.936L196.575 253.424C197.446 255.37 198.215 257.418 198.932 259.415L197.702 259.824ZM33.7685 251.018L32.5902 250.455C33.5123 248.509 34.4857 246.615 35.5615 244.721L36.6885 245.335C35.6127 247.229 34.6394 249.124 33.7685 251.018ZM192.682 248.202C191.709 246.308 190.684 244.465 189.557 242.673L190.633 242.007C191.76 243.85 192.836 245.693 193.809 247.588L192.682 248.202ZM40.0184 239.959L38.9426 239.242C40.1209 237.45 41.4016 235.709 42.6824 234.02L43.707 234.788C42.4262 236.477 41.1455 238.218 40.0184 239.959ZM186.022 237.348C184.793 235.658 183.461 233.969 182.129 232.33L183.102 231.511C184.485 233.15 185.817 234.89 187.047 236.631L186.022 237.348ZM47.7541 229.924L46.7807 229.054C48.2151 227.466 49.7008 225.879 51.2377 224.394L52.1086 225.316C50.6742 226.801 49.1885 228.337 47.7541 229.924ZM177.928 227.62C176.442 226.084 174.957 224.599 173.369 223.217L174.239 222.244C175.827 223.678 177.364 225.214 178.85 226.75L177.928 227.62ZM56.8729 221.066L56.0532 220.094C57.6926 218.711 59.3831 217.38 61.1249 216.151L61.8934 217.175C60.2028 218.404 58.5122 219.735 56.8729 221.066ZM168.502 219.07C166.862 217.79 165.121 216.51 163.379 215.332L164.096 214.257C165.889 215.435 167.631 216.715 169.321 218.046L168.502 219.07ZM67.17 213.643L66.504 212.567C68.2971 211.441 70.1926 210.366 72.088 209.342L72.7028 210.468C70.8073 211.441 68.963 212.516 67.17 213.643ZM157.948 212.004C156.104 210.929 154.209 209.956 152.313 209.035L152.877 207.857C154.823 208.779 156.719 209.803 158.563 210.878L157.948 212.004ZM78.3892 207.703L77.877 206.526C79.8237 205.656 81.8728 204.887 83.8708 204.171L84.2806 205.4C82.2827 206.116 80.336 206.884 78.3892 207.703ZM146.473 206.475C144.526 205.707 142.477 204.99 140.479 204.376L140.838 203.147C142.887 203.812 144.936 204.529 146.934 205.297L146.473 206.475ZM90.3257 203.505L89.9671 202.276C92.0163 201.713 94.1167 201.201 96.2171 200.792L96.4732 202.072C94.4753 202.43 92.3749 202.942 90.3257 203.505ZM134.383 202.686C132.334 202.225 130.233 201.764 128.133 201.457L128.338 200.177C130.438 200.536 132.59 200.945 134.639 201.406L134.383 202.686ZM102.826 200.996L102.672 199.716C104.772 199.46 106.975 199.256 109.076 199.153L109.127 200.433C107.026 200.587 104.875 200.74 102.826 200.996ZM121.832 200.689C119.731 200.484 117.58 200.382 115.479 200.331V199.051C117.631 199.102 119.783 199.204 121.934 199.409L121.832 200.689Z" fill="#2667FF"/>
<path d="M474.135 73.4085C462.199 73.4085 452.517 63.7318 452.517 51.8024C452.517 39.873 462.199 30.1963 474.135 30.1963C486.072 30.1963 495.754 39.873 495.754 51.8024C495.754 63.7318 486.021 73.4085 474.135 73.4085ZM474.135 31.1691C462.762 31.1691 453.49 40.4361 453.49 51.8024C453.49 63.1686 462.762 72.4357 474.135 72.4357C485.508 72.4357 494.781 63.1686 494.781 51.8024C494.781 40.4361 485.508 31.1691 474.135 31.1691Z" fill="#2667FF"/>
</svg>
