<svg width="244" height="150" viewBox="0 0 244 150" fill="none" xmlns="http://www.w3.org/2000/svg">
<path d="M242.566 1.35352H1.01978V148.961H242.566V1.35352Z" fill="white"/>
<path d="M243.232 149.626H0.405273V0.738281H243.232V149.626ZM1.68601 148.346H241.952V2.01826H1.68601V148.346Z" fill="#2667FF"/>
<path d="M45.3333 102.01H31.4502V127.507H45.3333V102.01Z" fill="#2667FF"/>
<path d="M73.0995 90.3379H59.2163V127.509H73.0995V90.3379Z" fill="#2667FF"/>
<path d="M100.917 99.8604H87.0342V127.508H100.917V99.8604Z" fill="#2667FF"/>
<path d="M128.735 80.4053H114.852V127.509H128.735V80.4053Z" fill="#2667FF"/>
<path d="M156.552 67.9609H142.669V127.506H156.552V67.9609Z" fill="#2667FF"/>
<path d="M184.318 50.1973H170.435V127.508H184.318V50.1973Z" fill="#2667FF"/>
<path d="M212.136 22.8564H198.253V127.508H212.136V22.8564Z" fill="#2667FF"/>
<path d="M42.5157 35.2451H31.4502V47.7377H42.5157V35.2451Z" fill="#87BFFF"/>
<path d="M134.421 41.0303H59.5752V44.2558H134.421V41.0303Z" fill="#87BFFF"/>
</svg>
