<svg xmlns="http://www.w3.org/2000/svg" width="244" height="150" fill="none"><path fill="#fff" d="M242.566 1.354H1.02V148.96h241.546V1.354Z"/><path fill="#2667FF" d="M243.232 149.626H.405V.738h242.827v148.888Zm-241.546-1.28h240.266V2.018H1.686v146.328Z"/><path fill="#2667FF" d="M45.333 102.01H31.45v25.497h13.883V102.01ZM73.1 90.338H59.216v37.171H73.1V90.338ZM100.917 99.86H87.034v27.648h13.883V99.86ZM128.735 80.405h-13.883v47.104h13.883V80.405ZM156.552 67.96h-13.883v59.546h13.883V67.961ZM184.318 50.197h-13.883v77.311h13.883v-77.31ZM212.136 22.856h-13.883v104.652h13.883V22.856Z"/><path fill="#87BFFF" d="M42.516 35.245H31.45v12.493h11.066V35.245ZM134.421 41.03H59.575v3.226h74.846V41.03Z"/></svg>