<svg xmlns="http://www.w3.org/2000/svg" width="32" height="40" fill="none"><path fill="#2667FF" fill-rule="evenodd" d="M1.667 34.667a1 1 0 0 1 1-1h26.666a1 1 0 1 1 0 2H2.667a1 1 0 0 1-1-1Z" clip-rule="evenodd"/><path fill="#2667FF" fill-rule="evenodd" d="M7.667 19.667v15a1 1 0 1 1-2 0V18.933a1.267 1.267 0 0 1 1.266-1.266H10.4a1.267 1.267 0 0 1 1.267 1.266v15.734a1 1 0 1 1-2 0v-15h-2Zm8-5.334v20.334a1 1 0 1 1-2 0V13.693c0-.293.086-.597.276-.851.189-.255.528-.509.99-.509H18.4c.462 0 .802.254.99.509.19.254.277.558.277.851v20.974a1 1 0 1 1-2 0V14.333h-2Zm8 9.334v11a1 1 0 1 1-2 0v-11.8c0-.447.248-.766.474-.937a1.31 1.31 0 0 1 .792-.263H26.4c.28 0 .561.087.793.263.226.171.474.49.474.937v11.8a1 1 0 1 1-2 0v-11h-2Z" clip-rule="evenodd"/></svg>