<svg xmlns="http://www.w3.org/2000/svg" width="32" height="40" fill="none"><path fill="#2667FF" fill-rule="evenodd" d="M2.667 9.667a1 1 0 0 1 1 1v24a1.666 1.666 0 0 0 1.666 1.666h24a1 1 0 1 1 0 2h-24a3.667 3.667 0 0 1-3.666-3.666v-24a1 1 0 0 1 1-1Z" clip-rule="evenodd"/><path fill="#2667FF" fill-rule="evenodd" d="M10 25a1 1 0 0 0-1 1v4a1 1 0 1 0 2 0v-4a1 1 0 0 0-1-1Zm-3 1a3 3 0 1 1 6 0v4a3 3 0 1 1-6 0v-4Zm11-7.667a1 1 0 0 0-1 1v4a1 1 0 0 0 2 0v-4a1 1 0 0 0-1-1Zm-3 1a3 3 0 1 1 6 0v4a3 3 0 0 1-6 0v-4ZM26 13a1 1 0 0 0-1 1v4a1 1 0 1 0 2 0v-4a1 1 0 0 0-1-1Zm-3 1a3 3 0 1 1 6 0v4a3 3 0 1 1-6 0v-4Z" clip-rule="evenodd"/></svg>