<svg xmlns="http://www.w3.org/2000/svg" width="32" height="40" fill="none"><path fill="#2667FF" d="M16.267 39.067c-.934 0-1.867-.267-2.534-.8-2.266-1.467-4.4-3.067-6.266-4.934-2.534-2.133-4.4-5.066-5.334-8.266-.4-2-.533-4-.4-5.867 0-1.867.134-3.6.267-4.133 0-.4.133-.667.267-.934.133-.266.4-.666.666-.933.267-.267.534-.4.934-.4.266-.133.666-.133 1.066 0 .8.133 1.6.133 2.4.267.934 0 1.867 0 2.8-.267.8-.267 1.6-.8 2.4-1.467l2-1.6c.934-.933 2.534-.933 3.467 0 .667.667 1.333 1.2 2 1.6.8.667 1.733 1.067 2.667 1.467.666.133 1.466.267 2.266.133.534 0 1.067.4 1.067.934 0 .533-.4 1.066-.933 1.066-.934 0-2 0-2.934-.266-1.333-.4-2.4-1.067-3.333-1.734-.8-.533-1.467-1.2-2.267-1.866-.133-.134-.533-.134-.666 0a13.5 13.5 0 0 1-2.134 1.733c-.933.933-2 1.467-3.2 1.867-1.2.266-2.266.4-3.333.266-.8 0-1.733-.133-2.533-.266H4.4c-.133 0-.133 0-.133.133l-.134.133v.134c0 .666-.266 2.266-.266 4.133-.134 1.733 0 3.6.266 5.333.934 2.667 2.534 5.334 4.8 7.2a52.554 52.554 0 0 0 6 4.8c.934.667 2 .534 2.934 0 2-1.466 3.866-3.066 5.733-4.8 2.133-2 3.733-4.533 4.533-7.333.134-.533.667-.8 1.2-.667.534.134.8.667.667 1.2-.933 3.067-2.8 5.867-5.067 8.134C23.2 34.933 21.2 36.533 19.067 38c-.934.8-1.867 1.067-2.8 1.067Z"/><path fill="#2667FF" d="M18.666 27.6c-.133 0-.4 0-.533-.133-.133 0-.267-.134-.4-.267L14 23.467c-.4-.4-.4-1.067 0-1.467.4-.4 1.066-.4 1.466 0l3.334 3.333 10-10c.4-.4 1.066-.4 1.466 0 .4.4.4 1.067 0 1.467L19.733 27.333c-.133.134-.267.267-.4.267-.267-.133-.533 0-.667 0Z"/></svg>