<svg xmlns="http://www.w3.org/2000/svg" width="32" height="40" fill="none"><path fill="#2667FF" fill-rule="evenodd" d="M7.333 11.667c-.92 0-1.666.746-1.666 1.666v5.334c0 .92.746 1.666 1.666 1.666h5.334c.92 0 1.666-.746 1.666-1.666v-5.334c0-.92-.746-1.666-1.666-1.666H7.333Zm-3.666 1.666a3.667 3.667 0 0 1 3.666-3.666h5.334a3.667 3.667 0 0 1 3.666 3.666v5.334a3.667 3.667 0 0 1-3.666 3.666H7.333a3.667 3.667 0 0 1-3.666-3.666v-5.334Zm3.666 14.334c-.92 0-1.666.746-1.666 1.666v5.334c0 .92.746 1.666 1.666 1.666h5.334c.92 0 1.666-.746 1.666-1.666v-5.334c0-.92-.746-1.666-1.666-1.666H7.333Zm-3.666 1.666a3.667 3.667 0 0 1 3.666-3.666h5.334a3.667 3.667 0 0 1 3.666 3.666v5.334a3.667 3.667 0 0 1-3.666 3.666H7.333a3.667 3.667 0 0 1-3.666-3.666v-5.334Zm14.667 0a1 1 0 0 1 1-1h8a1 1 0 1 1 0 2h-8a1 1 0 0 1-1-1Zm0 5.334a1 1 0 0 1 1-1h5.333a1 1 0 1 1 0 2h-5.334a1 1 0 0 1-1-1Zm0-16a1 1 0 0 1 1-1h5.333a1 1 0 1 1 0 2h-5.334a1 1 0 0 1-1-1Zm0-5.334a1 1 0 0 1 1-1h8a1 1 0 1 1 0 2h-8a1 1 0 0 1-1-1Z" clip-rule="evenodd"/></svg>