<svg xmlns="http://www.w3.org/2000/svg" width="32" height="40" fill="none"><path fill="#2667FF" fill-rule="evenodd" d="M18.387 13.2a8.333 8.333 0 1 0 0 16.667 8.333 8.333 0 0 0 0-16.667ZM8.053 21.533c0-5.707 4.627-10.333 10.334-10.333S28.72 15.826 28.72 21.533s-4.626 10.334-10.333 10.334S8.053 27.24 8.053 21.533Z" clip-rule="evenodd"/><path fill="#2667FF" fill-rule="evenodd" d="M12.587 27.52a1 1 0 0 1 0 1.414L6.08 35.44a1 1 0 1 1-1.414-1.414l6.507-6.507a1 1 0 0 1 1.414 0Z" clip-rule="evenodd"/></svg>