<svg xmlns="http://www.w3.org/2000/svg" width="32" height="40" fill="none"><path fill="#2667FF" fill-rule="evenodd" d="M2.667 9.667a1 1 0 0 1 1 1v26.666a1 1 0 0 1-2 0V10.667a1 1 0 0 1 1-1Z" clip-rule="evenodd"/><path fill="#2667FF" fill-rule="evenodd" d="M1.667 24a1 1 0 0 1 1-1h26.666a1 1 0 1 1 0 2H2.667a1 1 0 0 1-1-1ZM8 12.333a1 1 0 0 1 1 1v5.334a1 1 0 1 1-2 0v-5.334a1 1 0 0 1 1-1Zm4-2.666a1 1 0 0 1 1 1v8a1 1 0 1 1-2 0v-8a1 1 0 0 1 1-1Zm4 4a1 1 0 0 1 1 1v4a1 1 0 1 1-2 0v-4a1 1 0 0 1 1-1Zm12 14.666a1 1 0 0 1 1 1v5.334a1 1 0 1 1-2 0v-5.334a1 1 0 0 1 1-1Zm-4 0a1 1 0 0 1 1 1v8a1 1 0 1 1-2 0v-8a1 1 0 0 1 1-1Zm-4 0a1 1 0 0 1 1 1v4a1 1 0 1 1-2 0v-4a1 1 0 0 1 1-1Z" clip-rule="evenodd"/></svg>