<svg xmlns="http://www.w3.org/2000/svg" width="1457" height="327" fill="none"><path fill="#2856CC" d="m7.194 235 12.426-34.662H8.938l3.706-23.108h15.26l14.17-39.894H23.98l3.488-23.108h22.89L61.912 81.31h24.852l-11.772 32.918h19.184l11.772-32.918h25.07l-11.772 32.918h10.246l-3.488 23.108h-15.042l-14.17 39.894h17.876l-3.706 23.108H88.508L76.082 235H51.448l12.208-34.662H44.69L32.264 235H7.194Zm45.562-57.77H71.94l14.17-39.894H66.926l-14.17 39.894ZM127.445 235l24.416-153.69h69.324c12.063 0 21.8 1.671 29.212 5.014 7.412 3.197 12.789 7.63 16.132 13.298 3.343 5.523 5.014 11.772 5.014 18.748 0 9.447-2.761 17.44-8.284 23.98-5.377 6.54-12.571 11.118-21.582 13.734 7.267 2.761 12.862 7.049 16.786 12.862 4.069 5.668 6.104 12.353 6.104 20.056 0 14.824-5.232 26.233-15.696 34.226C238.407 231.076 224.31 235 206.579 235h-79.134Zm52.974-92.65h29.43c15.696 0 23.544-6.322 23.544-18.966 0-4.069-1.526-7.194-4.578-9.374-3.052-2.18-7.848-3.27-14.388-3.27h-28.994l-5.014 31.61Zm-10.028 63.22h33.79c7.557 0 13.153-1.671 16.786-5.014 3.633-3.343 5.45-8.066 5.45-14.17 0-9.737-6.467-14.606-19.402-14.606h-31.174l-5.45 33.79ZM271.793 235l24.416-153.69h40.112l-9.374 59.296h63.22l9.592-59.296h39.894L415.237 235h-39.894l9.592-61.476h-63.22L311.905 235h-40.112Z"/><path fill="#2667FF" d="M446.876 235V81.31h22.672v66.926h24.634l43.164-66.926h25.07l-46.87 70.632c6.104 2.325 11.481 5.959 16.132 10.9 4.651 4.796 8.793 10.827 12.426 18.094L570.482 235h-24.416l-20.928-44.69c-3.924-8.284-8.502-14.17-13.734-17.658-5.232-3.633-11.699-5.45-19.402-5.45h-22.454V235h-22.672Zm199.135 1.962c-14.679 0-27.396-3.197-38.15-9.592-10.755-6.54-19.112-15.696-25.07-27.468-5.814-11.917-8.72-25.869-8.72-41.856 0-16.132 2.906-30.084 8.72-41.856 5.958-11.772 14.315-20.855 25.07-27.25 10.754-6.395 23.471-9.592 38.15-9.592 14.533 0 27.177 3.197 37.932 9.592 10.9 6.395 19.256 15.478 25.07 27.25 5.958 11.772 8.938 25.651 8.938 41.638 0 16.132-2.98 30.157-8.938 42.074-5.814 11.772-14.17 20.928-25.07 27.468-10.755 6.395-23.399 9.592-37.932 9.592Zm0-19.62c15.26 0 27.104-5.159 35.534-15.478 8.574-10.464 12.862-25.07 12.862-43.818 0-18.748-4.215-33.281-12.644-43.6-8.43-10.319-20.347-15.478-35.752-15.478-15.26 0-27.178 5.159-35.752 15.478-8.43 10.319-12.644 24.852-12.644 43.6s4.214 33.354 12.644 43.818c8.574 10.319 20.492 15.478 35.752 15.478ZM739.618 235V81.31h22.672v66.272h86.11V81.31h22.454V235H848.4v-68.452h-86.11V235h-22.672Zm195.895 0V100.276h-54.5V81.31h131.457v18.966h-54.503V235h-22.454Zm87.057 0V81.31h63.65c16.57 0 29.36 4.142 38.37 12.426 9.01 8.139 13.52 19.62 13.52 34.444 0 14.969-4.51 26.596-13.52 34.88-9.01 8.139-21.8 12.208-38.37 12.208h-40.98V235h-22.67Zm22.67-77.826h37.71c22.09 0 33.14-9.665 33.14-28.994 0-19.184-11.05-28.776-33.14-28.776h-37.71v57.77Zm173.05 79.788c-14.67 0-27.39-3.197-38.15-9.592-10.75-6.54-19.11-15.696-25.07-27.468-5.81-11.917-8.72-25.869-8.72-41.856 0-16.132 2.91-30.084 8.72-41.856 5.96-11.772 14.32-20.855 25.07-27.25 10.76-6.395 23.48-9.592 38.15-9.592 14.54 0 27.18 3.197 37.94 9.592 10.9 6.395 19.25 15.478 25.07 27.25 5.96 11.772 8.93 25.651 8.93 41.638 0 16.132-2.97 30.157-8.93 42.074-5.82 11.772-14.17 20.928-25.07 27.468-10.76 6.395-23.4 9.592-37.94 9.592Zm0-19.62c15.26 0 27.11-5.159 35.54-15.478 8.57-10.464 12.86-25.07 12.86-43.818 0-18.748-4.21-33.281-12.64-43.6-8.43-10.319-20.35-15.478-35.76-15.478-15.26 0-27.17 5.159-35.75 15.478-8.43 10.319-12.64 24.852-12.64 43.6s4.21 33.354 12.64 43.818c8.58 10.319 20.49 15.478 35.75 15.478Zm89.69 21.146-10.68-17.222c5.67-3.052 10.76-6.758 15.26-11.118 4.51-4.505 8.28-10.246 11.34-17.222 3.19-6.976 5.59-15.696 7.19-26.16 1.6-10.609 2.4-23.617 2.4-39.022V81.31h104.86V235h-22.46V100.276h-61.47v33.136c0 20.637-1.82 37.859-5.45 51.666-3.64 13.661-8.94 24.779-15.92 33.354-6.83 8.429-15.18 15.115-25.07 20.056Z"/></svg>